<?xml version="1.0" encoding="utf-8"?>
<!-- Generator: Adobe Illustrator 24.0.1, SVG Export Plug-In . SVG Version: 6.00 Build 0)  -->
<svg version="1.1" id="Calque_1" xmlns="http://www.w3.org/2000/svg" xmlns:xlink="http://www.w3.org/1999/xlink" x="0px" y="0px"
	 viewBox="0 0 360 152" style="enable-background:new 0 0 360 152;" xml:space="preserve">
<style type="text/css">
	.st0{fill:none;stroke:#000000;stroke-miterlimit:10;}
</style>
<g>
	<path class="st0" d="M74.57,85.99c0-2.46,0.09-4.75,0.26-6.86s0.47-4.17,0.88-6.2c0.41-2.02,0.89-4.07,1.45-6.15
		c0.56-2.08,1.24-4.32,2.07-6.72c0.53-1.64,1.36-3.63,2.5-5.98c1.14-2.34,2.52-4.56,4.13-6.64c1.61-2.08,3.43-3.85,5.45-5.32
		c2.02-1.46,4.14-2.2,6.37-2.2h7.29c0.06,0,0.25,0.04,0.57,0.13c0.32,0.09,0.57,0.16,0.75,0.22c2.29,1.11,4.07,2.48,5.36,4.09
		c1.29,1.61,2.17,3.68,2.64,6.2c0.53,2.4,1.1,4.7,1.71,6.9s0.92,4.5,0.92,6.9c0,2.87-0.07,5.71-0.22,8.53
		c-0.15,2.81-0.22,5.66-0.22,8.53c0,0.18,0,0.48,0,0.92s0.01,0.92,0.04,1.45c0.03,0.53,0.04,1.03,0.04,1.49c0,0.47,0,0.76,0,0.88
		c0.06,0.47,0.12,1.14,0.18,2.02c0.06,0.88,0.18,1.85,0.35,2.9s0.35,2.14,0.53,3.25c0.18,1.11,0.4,2.12,0.66,3.03
		c0.26,0.91,0.57,1.66,0.92,2.24c0.35,0.59,0.76,0.88,1.23,0.88c1.58,0,3.24-0.2,4.97-0.62c1.73-0.41,3.3-1.05,4.7-1.93
		c0.12-0.12,0.4-0.34,0.83-0.66c0.44-0.32,0.91-0.67,1.41-1.05c0.5-0.38,0.97-0.73,1.41-1.05c0.44-0.32,0.78-0.57,1.01-0.75
		c0.41-0.29,0.75-0.51,1.01-0.66c0.26-0.15,0.6-0.22,1.01-0.22c0.35,0,0.67,0.1,0.97,0.31c0.29,0.21,0.44,0.51,0.44,0.92
		c0,1.35-0.75,2.61-2.24,3.78c-1.49,1.17-3.24,2.23-5.23,3.16c-1.99,0.94-4,1.69-6.02,2.24c-2.02,0.56-3.53,0.83-4.53,0.83
		c-1.29,0-2.39-0.66-3.3-1.98c-0.91-1.32-1.7-2.87-2.37-4.66c-0.67-1.79-1.26-3.63-1.76-5.54c-0.5-1.9-0.98-3.47-1.45-4.7
		c-0.82,2.34-2.04,4.53-3.65,6.55c-1.61,2.02-3.44,3.79-5.49,5.32c-2.05,1.52-4.28,2.72-6.68,3.6c-2.4,0.88-4.83,1.32-7.29,1.32
		c-2.7,0-4.94-0.54-6.72-1.63c-1.79-1.08-3.19-2.49-4.22-4.22c-1.03-1.73-1.73-3.72-2.11-5.98C74.76,90.63,74.57,88.33,74.57,85.99z
		 M80.02,85.28c0,1.76,0.04,3.53,0.13,5.32c0.09,1.79,0.41,3.41,0.97,4.88c0.56,1.47,1.44,2.65,2.64,3.56
		c1.2,0.91,2.91,1.36,5.14,1.36c2.93,0,5.54-0.66,7.82-1.98s4.28-3.05,5.98-5.19c1.7-2.14,3.13-4.6,4.31-7.38
		c1.17-2.78,2.11-5.62,2.81-8.53s1.22-5.73,1.54-8.48c0.32-2.75,0.48-5.21,0.48-7.38c-1.52,0-2.29-0.7-2.29-2.11
		c0-0.88,0.18-1.65,0.53-2.33c0.35-0.67,0.53-1.54,0.53-2.59c0-1.29-0.22-2.55-0.66-3.78s-1.08-2.34-1.93-3.34
		c-0.85-1-1.85-1.77-2.99-2.33c-1.14-0.56-2.39-0.83-3.74-0.83c-2.75,0-5.17,0.75-7.25,2.24c-2.08,1.49-3.91,3.44-5.49,5.84
		c-1.58,2.4-2.92,5.11-4,8.13c-1.08,3.02-1.96,6.06-2.64,9.14c-0.67,3.08-1.16,6.01-1.45,8.79C80.16,81.08,80.02,83.41,80.02,85.28z
		"/>
	<path class="st0" d="M136.79,102.86l2.99-17.58v-2.46l1.76-11.69c0.18-0.23,0.5-0.37,0.97-0.4c0.47-0.03,0.79-0.04,0.97-0.04
		c0.47,0,1.01,0.16,1.63,0.48c0.62,0.32,0.92,0.75,0.92,1.27v5.98c0.23-0.18,0.64-0.53,1.23-1.05c0.58-0.53,1.22-1.08,1.89-1.67
		c0.67-0.58,1.3-1.14,1.89-1.67c0.58-0.53,0.97-0.91,1.14-1.14c0.64-0.58,1.42-1.08,2.33-1.49c0.91-0.41,1.77-0.62,2.59-0.62
		c1.7,0,3.03,0.53,4,1.58s1.45,2.4,1.45,4.04c0,0.12-0.02,0.19-0.04,0.22c-0.03,0.03-0.04,0.1-0.04,0.22v0.35l-3.34,15.03v7.12
		c1.82,0,3.71-0.37,5.67-1.1c1.96-0.73,3.85-1.65,5.67-2.77c1.82-1.11,3.52-2.39,5.1-3.82c1.58-1.44,2.96-2.83,4.13-4.17h0.35
		c0.41,0,0.75,0.13,1.01,0.4s0.4,0.6,0.4,1.01c0,1.29-0.43,2.56-1.27,3.82c-0.85,1.26-1.93,2.45-3.25,3.56
		c-1.32,1.11-2.84,2.17-4.57,3.16c-1.73,1-3.43,1.85-5.1,2.55s-3.3,1.26-4.88,1.67c-1.58,0.41-2.93,0.62-4.04,0.62
		c-1.11,0-1.99-0.2-2.64-0.62c-0.65-0.41-1.13-0.95-1.45-1.63c-0.32-0.67-0.53-1.42-0.62-2.24c-0.09-0.82-0.13-1.7-0.13-2.64V96
		l3.43-17.05v-2.9c-1.41,0-2.8,0.62-4.17,1.85c-1.38,1.23-2.61,2.72-3.69,4.48c-1.08,1.76-2.02,3.55-2.81,5.36
		c-0.79,1.82-1.36,3.31-1.71,4.48c-0.12,0.41-0.29,1.14-0.53,2.2c-0.23,1.05-0.45,2.17-0.66,3.34c-0.21,1.17-0.4,2.29-0.57,3.34
		s-0.29,1.82-0.35,2.29c0.06,0.35-0.04,0.62-0.31,0.79s-0.57,0.31-0.92,0.4s-0.72,0.13-1.1,0.13c-0.38,0-0.69,0-0.92,0
		c-0.53,0-1.05-0.09-1.58-0.26s-0.79-0.62-0.79-1.32V102.86z"/>
	<path class="st0" d="M178.45,101.98c0-0.18,0-0.62,0-1.32s0-1.17,0-1.41c-1-3.52-1.13-6.97-0.4-10.37c0.73-3.4,2.05-6.46,3.96-9.18
		c1.9-2.72,4.34-5.01,7.29-6.86c2.96-1.85,6.2-2.97,9.71-3.38h1.58c1.29,0,2.36,0.28,3.21,0.83c0.85,0.56,1.52,1.27,2.02,2.15
		c0.5,0.88,0.85,1.88,1.05,2.99c0.2,1.11,0.31,2.23,0.31,3.34c0,1.52-0.16,3-0.48,4.44c-0.32,1.44-0.67,2.89-1.05,4.35
		c-0.38,1.47-0.73,2.92-1.05,4.35c-0.32,1.44-0.48,2.94-0.48,4.53v0.53c0.06,0.12,0.13,0.45,0.22,1.01
		c0.09,0.56,0.16,0.89,0.22,1.01c0.12,0,0.41,0.02,0.88,0.04c0.47,0.03,0.76,0.04,0.88,0.04c0.58,0,1.16-0.01,1.71-0.04
		c0.56-0.03,1.13-0.16,1.71-0.4l16.7-7.73c0.06,0,0.16-0.01,0.31-0.04c0.15-0.03,0.25-0.04,0.31-0.04c0.58,0,1.07,0.18,1.45,0.53
		c0.38,0.35,0.57,0.82,0.57,1.41c0,0.29-0.02,0.57-0.04,0.83c-0.03,0.26-0.19,0.51-0.48,0.75c-0.41,0.29-1.16,0.7-2.24,1.23
		c-1.08,0.53-2.24,1.11-3.47,1.76c-1.23,0.65-2.39,1.26-3.47,1.85c-1.08,0.59-1.86,0.97-2.33,1.14c-0.82,0.47-1.73,0.89-2.72,1.27
		c-1,0.38-2.02,0.75-3.08,1.1s-2.1,0.63-3.12,0.83c-1.03,0.21-1.95,0.31-2.77,0.31c-1.29,0-2.34-0.22-3.16-0.66
		c-0.82-0.44-1.44-1.02-1.85-1.76c-0.41-0.73-0.69-1.61-0.83-2.64c-0.15-1.02-0.16-2.09-0.04-3.21c-1.17,0.94-2.43,1.93-3.78,2.99
		c-1.35,1.05-2.75,2.02-4.22,2.9c-1.47,0.88-2.96,1.64-4.48,2.29c-1.52,0.65-3.08,0.97-4.66,0.97c-0.88,0-1.67-0.22-2.37-0.66
		S178.75,102.92,178.45,101.98z M183.2,100.14c1.35,0,2.84-0.4,4.48-1.19c1.64-0.79,3.25-1.77,4.83-2.94
		c1.58-1.17,3.02-2.42,4.31-3.74c1.29-1.32,2.29-2.5,2.99-3.56c0.06-1.76,0.31-3.44,0.75-5.05c0.44-1.61,0.66-3.27,0.66-4.97
		c0-0.12-0.02-0.29-0.04-0.53c-0.03-0.23-0.04-0.41-0.04-0.53c-0.76-0.64-1.41-1.02-1.93-1.14c-0.53-0.12-1.23-0.18-2.11-0.18
		c-0.12,0-0.37,0-0.75,0c-0.38,0-0.63,0.03-0.75,0.09c-0.35,0.29-0.94,0.83-1.76,1.63c-0.82,0.79-1.69,1.66-2.59,2.59
		c-0.91,0.94-1.76,1.82-2.55,2.64c-0.79,0.82-1.33,1.38-1.63,1.67c-0.06,0-0.18,0.1-0.35,0.31c-0.18,0.21-0.37,0.45-0.57,0.75
		c-0.21,0.29-0.38,0.57-0.53,0.83c-0.15,0.26-0.25,0.48-0.31,0.66l-2.11,10.28V100.14z"/>
	<path class="st0" d="M224.77,67.44c0-1.23,0.16-2.21,0.48-2.94c0.32-0.73,0.72-1.3,1.19-1.71c0.47-0.41,0.98-0.7,1.54-0.88
		c0.56-0.18,1.07-0.26,1.54-0.26c1.23,0,1.85,1.55,1.85,4.66c0,2.29-0.23,3.74-0.7,4.35c-0.47,0.62-1.17,0.92-2.11,0.92
		c-0.41,0-0.82,0-1.23,0c-0.41,0-0.81-0.12-1.19-0.35c-0.38-0.23-0.7-0.64-0.97-1.23C224.9,69.4,224.77,68.55,224.77,67.44z
		 M226.35,86.16c0.06-0.29,0.23-0.82,0.53-1.58c0.29-0.76,0.6-1.58,0.92-2.46c0.32-0.88,0.63-1.7,0.92-2.46
		c0.29-0.76,0.5-1.29,0.62-1.58c0.35-0.94,0.69-1.55,1.01-1.85c0.32-0.29,0.92-0.44,1.8-0.44c0.94,0,1.55,0.32,1.85,0.97
		c0.29,0.65,0.44,1.41,0.44,2.29c0,1.52-0.22,2.92-0.66,4.17c-0.44,1.26-0.92,2.52-1.45,3.78c-0.53,1.26-1.01,2.61-1.45,4.04
		c-0.44,1.44-0.66,3.09-0.66,4.97c0,0.23,0,0.57,0,1.01s0.03,0.88,0.09,1.32c0.06,0.44,0.18,0.82,0.35,1.14
		c0.18,0.32,0.41,0.48,0.7,0.48c1.52,0,3.06-0.31,4.61-0.92c1.55-0.62,3.08-1.35,4.57-2.2c1.49-0.85,2.93-1.79,4.31-2.81
		c1.38-1.02,2.62-1.92,3.74-2.68c0.41-0.29,0.72-0.58,0.92-0.88c0.2-0.29,0.4-0.57,0.57-0.83s0.4-0.5,0.66-0.7
		c0.26-0.2,0.69-0.31,1.27-0.31c0.76,0,1.39,0.16,1.89,0.48c0.5,0.32,0.75,0.89,0.75,1.71c0,0.35-0.02,0.67-0.04,0.97
		c-0.03,0.29-0.19,0.56-0.48,0.79c-0.06,0.18-0.28,0.41-0.66,0.7c-0.38,0.29-0.78,0.6-1.19,0.92c-0.41,0.32-0.79,0.62-1.14,0.88
		s-0.62,0.43-0.79,0.48c-0.06,0-0.22,0.07-0.48,0.22c-0.26,0.15-0.43,0.22-0.48,0.22c-0.06,0.06-0.13,0.13-0.22,0.22
		s-0.13,0.16-0.13,0.22c-1.23,0.94-2.56,1.89-4,2.86c-1.44,0.97-2.94,1.85-4.53,2.64s-3.21,1.45-4.88,1.98s-3.33,0.79-4.97,0.79
		c-1.41,0-2.48-0.37-3.21-1.1c-0.73-0.73-1.27-1.65-1.63-2.77c-0.35-1.11-0.56-2.29-0.62-3.52c-0.06-1.23-0.09-2.34-0.09-3.34
		L226.35,86.16z M228.9,66.3c-0.12,0-0.38,0.03-0.79,0.09c-0.41,0.06-0.67,0.41-0.79,1.05h1.58V66.3z M236.73,67.53
		c0-1.23,0.15-2.23,0.44-2.99c0.29-0.76,0.66-1.35,1.1-1.76c0.44-0.41,0.91-0.7,1.41-0.88c0.5-0.18,0.98-0.26,1.45-0.26
		c0.29,0,0.62,0.02,0.97,0.04c0.35,0.03,0.69,0.15,1.01,0.35c0.32,0.21,0.58,0.54,0.79,1.01c0.2,0.47,0.31,1.08,0.31,1.85
		c0,2.34-0.45,4.04-1.36,5.1c-0.91,1.05-1.83,1.58-2.77,1.58c-0.35,0-0.73,0-1.14,0c-0.41,0-0.76-0.12-1.05-0.35
		c-0.29-0.23-0.56-0.63-0.79-1.19C236.84,69.48,236.73,68.64,236.73,67.53z M240.5,66.3c-0.12,0-0.38,0.03-0.79,0.09
		c-0.41,0.06-0.65,0.41-0.7,1.05h1.49V66.3z"/>
	<path class="st0" d="M260.81,92.23c-0.47,0.23-0.97,0.37-1.49,0.4c-0.53,0.03-1.05,0.04-1.58,0.04s-1.05,0.02-1.58,0.04
		c-0.53,0.03-1.05,0.16-1.58,0.4c-1,0.12-1.64,0.04-1.93-0.22c-0.29-0.26-0.38-0.63-0.26-1.1c0.12-0.47,0.44-1,0.97-1.58
		c0.53-0.58,1.13-1.08,1.8-1.49c0.67-0.41,1.41-0.7,2.2-0.88s1.51-0.15,2.15,0.09c-0.29-1.05-0.26-1.96,0.09-2.72
		c0.35-0.76,1.05-1.14,2.11-1.14c0.53,0,1.01,0.04,1.45,0.13s0.78,0.34,1.01,0.75c0.88-0.53,2.05-1.42,3.52-2.68
		c1.46-1.26,2.97-2.55,4.53-3.87c1.55-1.32,2.97-2.49,4.26-3.52c1.29-1.02,2.17-1.54,2.64-1.54c0.18,0,0.41,0.02,0.7,0.04
		c0.29,0.03,0.6,0.1,0.92,0.22c0.32,0.12,0.58,0.25,0.79,0.4c0.2,0.15,0.31,0.37,0.31,0.66v3.78c-0.41,1.64-0.81,3.18-1.19,4.61
		c-0.38,1.44-0.7,2.84-0.97,4.22c-0.26,1.38-0.45,2.77-0.57,4.17c-0.12,1.41-0.18,2.9-0.18,4.48c0.94,0,2.07-0.2,3.38-0.62
		c1.32-0.41,2.65-0.91,4-1.49c1.35-0.58,2.61-1.19,3.78-1.8c1.17-0.62,2.11-1.13,2.81-1.54c0.12-0.06,0.38-0.26,0.79-0.62
		c0.41-0.35,0.85-0.72,1.32-1.1c0.47-0.38,0.92-0.73,1.36-1.05c0.44-0.32,0.72-0.54,0.83-0.66c0.12-0.12,0.41-0.28,0.88-0.48
		c0.47-0.2,0.73-0.34,0.79-0.4c0.23-0.06,0.45,0.02,0.66,0.22c0.2,0.21,0.4,0.44,0.57,0.7s0.31,0.53,0.4,0.79s0.13,0.43,0.13,0.48
		c0,0.59-0.23,1.17-0.7,1.76c-0.47,0.59-1.03,1.13-1.67,1.63c-0.65,0.5-1.3,0.97-1.98,1.41c-0.67,0.44-1.19,0.83-1.54,1.19
		c-0.47,0.23-1.27,0.62-2.42,1.14s-2.36,1.08-3.65,1.67c-1.29,0.59-2.5,1.14-3.65,1.67s-1.95,0.91-2.42,1.14
		c-0.12,0.06-0.38,0.13-0.79,0.22c-0.41,0.09-0.85,0.22-1.32,0.4c-0.47,0.18-0.92,0.31-1.36,0.4s-0.72,0.16-0.83,0.22
		c-0.53,0.18-0.92,0.47-1.19,0.88c-0.26,0.41-0.53,0.82-0.79,1.23c-0.26,0.41-0.59,0.76-0.97,1.05c-0.38,0.29-0.98,0.38-1.8,0.26
		c-0.06-0.06-0.31-0.19-0.75-0.4c-0.44-0.2-0.72-0.37-0.83-0.48c-1.41-1-2.61-1.93-3.6-2.81c-1-0.88-1.9-1.74-2.72-2.59
		c-0.82-0.85-1.6-1.77-2.33-2.77C262.58,94.57,261.74,93.46,260.81,92.23z M266.34,88.71c0.41,0.88,0.8,1.73,1.19,2.55
		c0.38,0.82,0.83,1.6,1.36,2.33c0.53,0.73,1.13,1.36,1.8,1.89c0.67,0.53,1.51,0.85,2.5,0.97c0.12-0.88,0.26-1.93,0.44-3.16
		s0.38-2.52,0.62-3.87c0.23-1.35,0.51-2.68,0.83-4c0.32-1.32,0.69-2.47,1.1-3.47h-0.88c-0.94,0.65-1.82,1.29-2.64,1.93
		c-0.76,0.59-1.52,1.16-2.29,1.71c-0.76,0.56-1.38,1.04-1.85,1.45c-0.06,0.06-0.15,0.15-0.26,0.26c-0.12,0.12-0.21,0.18-0.26,0.18
		c-0.06,0.12-0.32,0.32-0.79,0.62C266.75,88.39,266.46,88.59,266.34,88.71z M276.19,80.62c-0.18,0-0.26,0.13-0.26,0.4
		s0.09,0.4,0.26,0.4c0.23,0,0.35-0.13,0.35-0.4S276.42,80.62,276.19,80.62z"/>
</g>
<g>
</g>
<g>
</g>
<g>
</g>
<g>
</g>
<g>
</g>
<g>
</g>
<g>
</g>
<g>
</g>
<g>
</g>
<g>
</g>
<g>
</g>
<g>
</g>
<g>
</g>
<g>
</g>
<g>
</g>
</svg>
