<?xml version="1.0" encoding="utf-8"?>
<!-- Generator: Adobe Illustrator 24.0.1, SVG Export Plug-In . SVG Version: 6.00 Build 0)  -->
<svg version="1.1" id="Calque_1" xmlns="http://www.w3.org/2000/svg" xmlns:xlink="http://www.w3.org/1999/xlink" x="0px" y="0px"
	 viewBox="0 0 360 152" style="enable-background:new 0 0 360 152;" xml:space="preserve">
<style type="text/css">
	.st0{fill:none;stroke:#000000;stroke-miterlimit:10;}
</style>
<g>
	<path class="st0" d="M28.5,61.27c0-2.46,0.09-4.75,0.26-6.86s0.47-4.17,0.88-6.2c0.41-2.02,0.89-4.07,1.45-6.15
		c0.56-2.08,1.24-4.32,2.07-6.72c0.53-1.64,1.36-3.63,2.5-5.98c1.14-2.34,2.52-4.56,4.13-6.64c1.61-2.08,3.43-3.85,5.45-5.32
		c2.02-1.46,4.14-2.2,6.37-2.2h7.29c0.06,0,0.25,0.04,0.57,0.13c0.32,0.09,0.57,0.16,0.75,0.22c2.29,1.11,4.07,2.48,5.36,4.09
		c1.29,1.61,2.17,3.68,2.64,6.2c0.53,2.4,1.1,4.7,1.71,6.9s0.92,4.5,0.92,6.9c0,2.87-0.07,5.71-0.22,8.53
		c-0.15,2.81-0.22,5.66-0.22,8.53c0,0.18,0,0.48,0,0.92s0.01,0.92,0.04,1.45c0.03,0.53,0.04,1.03,0.04,1.49c0,0.47,0,0.76,0,0.88
		c0.06,0.47,0.12,1.14,0.18,2.02c0.06,0.88,0.18,1.85,0.35,2.9s0.35,2.14,0.53,3.25c0.18,1.11,0.4,2.12,0.66,3.03
		c0.26,0.91,0.57,1.66,0.92,2.24c0.35,0.59,0.76,0.88,1.23,0.88c1.58,0,3.24-0.2,4.97-0.62c1.73-0.41,3.3-1.05,4.7-1.93
		c0.12-0.12,0.4-0.34,0.83-0.66c0.44-0.32,0.91-0.67,1.41-1.05c0.5-0.38,0.97-0.73,1.41-1.05c0.44-0.32,0.78-0.57,1.01-0.75
		c0.41-0.29,0.75-0.51,1.01-0.66c0.26-0.15,0.6-0.22,1.01-0.22c0.35,0,0.67,0.1,0.97,0.31c0.29,0.21,0.44,0.51,0.44,0.92
		c0,1.35-0.75,2.61-2.24,3.78c-1.49,1.17-3.24,2.23-5.23,3.16c-1.99,0.94-4,1.69-6.02,2.24c-2.02,0.56-3.53,0.83-4.53,0.83
		c-1.29,0-2.39-0.66-3.3-1.98c-0.91-1.32-1.7-2.87-2.37-4.66c-0.67-1.79-1.26-3.63-1.76-5.54c-0.5-1.9-0.98-3.47-1.45-4.7
		c-0.82,2.34-2.04,4.53-3.65,6.55c-1.61,2.02-3.44,3.79-5.49,5.32c-2.05,1.52-4.28,2.72-6.68,3.6c-2.4,0.88-4.83,1.32-7.29,1.32
		c-2.7,0-4.94-0.54-6.72-1.63c-1.79-1.08-3.19-2.49-4.22-4.22c-1.03-1.73-1.73-3.72-2.11-5.98C28.69,65.91,28.5,63.61,28.5,61.27z
		 M33.95,60.56c0,1.76,0.04,3.53,0.13,5.32c0.09,1.79,0.41,3.41,0.97,4.88c0.56,1.47,1.44,2.65,2.64,3.56
		c1.2,0.91,2.91,1.36,5.14,1.36c2.93,0,5.54-0.66,7.82-1.98s4.28-3.05,5.98-5.19c1.7-2.14,3.13-4.6,4.31-7.38
		c1.17-2.78,2.11-5.62,2.81-8.53s1.22-5.73,1.54-8.48c0.32-2.75,0.48-5.21,0.48-7.38c-1.52,0-2.29-0.7-2.29-2.11
		c0-0.88,0.18-1.65,0.53-2.33c0.35-0.67,0.53-1.54,0.53-2.59c0-1.29-0.22-2.55-0.66-3.78s-1.08-2.34-1.93-3.34
		c-0.85-1-1.85-1.77-2.99-2.33c-1.14-0.56-2.39-0.83-3.74-0.83c-2.75,0-5.17,0.75-7.25,2.24c-2.08,1.49-3.91,3.44-5.49,5.84
		c-1.58,2.4-2.92,5.11-4,8.13c-1.08,3.02-1.96,6.06-2.64,9.14c-0.67,3.08-1.16,6.01-1.45,8.79C34.09,56.36,33.95,58.69,33.95,60.56z
		"/>
	<path class="st0" d="M90.37,70.41c0.23-0.82,0.4-1.67,0.48-2.55s0.2-1.82,0.35-2.81c0.15-1,0.41-2.12,0.79-3.38
		c0.38-1.26,0.98-2.68,1.8-4.26c0.82-1.58,1.92-3.41,3.3-5.49c1.38-2.08,3.18-4.47,5.41-7.16c0.23-0.35,0.53-0.66,0.88-0.92
		s0.73-0.4,1.14-0.4c0.7,0,1.32,0.28,1.85,0.83c0.53,0.56,0.79,1.16,0.79,1.8c0,0.06-0.04,0.25-0.13,0.57
		c-0.09,0.32-0.16,0.54-0.22,0.66c-0.65,1.35-1.26,2.55-1.85,3.6c-0.59,1.05-1.2,2.07-1.85,3.03c-0.65,0.97-1.36,1.98-2.15,3.03
		s-1.71,2.26-2.77,3.6c-0.7,1.76-1.32,3.4-1.85,4.92c-0.53,1.52-0.79,3.22-0.79,5.1c0,0.94,0.04,1.7,0.13,2.29
		c0.09,0.59,0.37,1.38,0.83,2.37h0.97c1.7,0,3.65-0.69,5.84-2.07c2.2-1.38,4.36-3.02,6.5-4.92c2.14-1.9,4.09-3.85,5.84-5.84
		c1.76-1.99,3.05-3.6,3.87-4.83c0.12-0.12,0.28-0.4,0.48-0.83c0.2-0.44,0.34-0.72,0.4-0.83c0.12-0.35,0.32-0.95,0.62-1.8
		c0.29-0.85,0.6-1.74,0.92-2.68c0.32-0.94,0.63-1.83,0.92-2.68c0.29-0.85,0.5-1.45,0.62-1.8c0.12-0.53,0.35-0.82,0.7-0.88
		c0.35-0.06,0.7-0.09,1.05-0.09c1.05,0,1.73,0.22,2.02,0.66c0.29,0.44,0.44,1.16,0.44,2.15v1.49c-0.59,1.58-1.1,3.05-1.54,4.39
		c-0.44,1.35-0.85,2.67-1.23,3.96c-0.38,1.29-0.66,2.58-0.83,3.87c-0.18,1.29-0.26,2.7-0.26,4.22c0,0.18-0.02,0.59-0.04,1.23
		c-0.03,0.65,0,1.3,0.09,1.98c0.09,0.67,0.26,1.29,0.53,1.85c0.26,0.56,0.66,0.83,1.19,0.83c1.41,0,2.86-0.19,4.35-0.57
		c1.49-0.38,3-0.88,4.53-1.49c1.52-0.62,2.97-1.3,4.35-2.07c1.38-0.76,2.68-1.52,3.91-2.29c0.29-0.12,0.64-0.38,1.05-0.79
		c0.41-0.41,0.85-0.8,1.32-1.19c0.47-0.38,0.94-0.72,1.41-1.01c0.47-0.29,0.91-0.44,1.32-0.44c1.17,0,1.76,0.59,1.76,1.76
		c0,0.88-0.53,1.8-1.58,2.77s-2.39,1.92-4,2.86c-1.61,0.94-3.41,1.82-5.41,2.64c-1.99,0.82-3.91,1.54-5.76,2.15s-3.5,1.11-4.97,1.49
		c-1.47,0.38-2.52,0.57-3.16,0.57c-0.23,0-0.66-0.01-1.27-0.04c-0.62-0.03-1.04-0.04-1.27-0.04c-0.94-0.23-1.67-0.76-2.2-1.58
		c-0.53-0.82-0.92-1.74-1.19-2.77c-0.26-1.02-0.43-2.05-0.48-3.08c-0.06-1.02-0.09-1.86-0.09-2.5c-0.18,0.12-0.4,0.25-0.66,0.4
		c-0.26,0.15-0.43,0.31-0.48,0.48c-0.47,0.41-1.25,1.04-2.33,1.89c-1.08,0.85-2.26,1.76-3.52,2.72c-1.26,0.97-2.43,1.86-3.52,2.68
		c-1.08,0.82-1.83,1.41-2.24,1.76c-1.17,0.88-2.46,1.61-3.87,2.2c-1.41,0.59-2.84,0.88-4.31,0.88c-1.52,0-2.72-0.25-3.6-0.75
		c-0.88-0.5-1.57-1.17-2.07-2.02c-0.5-0.85-0.83-1.86-1.01-3.03C90.46,73.01,90.37,71.76,90.37,70.41z"/>
	<path class="st0" d="M144.25,69.44c1.64-1.23,2.86-2.43,3.65-3.6c0.79-1.17,1.42-2.34,1.89-3.52c0.47-1.17,0.85-2.42,1.14-3.74
		c0.29-1.32,0.76-2.77,1.41-4.35c-0.23-0.41-0.37-0.78-0.4-1.1c-0.03-0.32-0.04-0.72-0.04-1.19c0-0.47,0.07-1.02,0.22-1.67
		c0.15-0.64,0.37-1.24,0.66-1.8c0.29-0.56,0.64-1.04,1.05-1.45c0.41-0.41,0.91-0.62,1.49-0.62c-0.06,0.23,0.28,0.5,1.01,0.79
		c0.73,0.29,1.64,0.62,2.72,0.97c1.08,0.35,2.24,0.73,3.47,1.14c1.23,0.41,2.31,0.85,3.25,1.32c1.05,0.59,1.8,1.22,2.24,1.89
		c0.44,0.67,0.66,1.63,0.66,2.86c0,1.11-0.13,2.37-0.4,3.78s-0.53,2.83-0.79,4.26c-0.26,1.44-0.53,2.87-0.79,4.31
		c-0.26,1.44-0.4,2.74-0.4,3.91v2.29c-0.06,0.53,0.07,0.81,0.4,0.83c0.32,0.03,0.63,0.04,0.92,0.04c0.7,0,1.35-0.12,1.93-0.35
		c0.58-0.23,1.19-0.5,1.8-0.79c0.62-0.29,1.22-0.57,1.8-0.83c0.58-0.26,1.2-0.45,1.85-0.57l7.73-4.75c0.23-0.41,0.54-0.75,0.92-1.01
		c0.38-0.26,0.75-0.51,1.1-0.75c0.58-0.35,1.29-0.85,2.11-1.49c0.41-0.35,0.85-0.7,1.32-1.05h2.64c0.18,0,0.29,0.18,0.35,0.53
		c0.06,0.35,0.09,0.62,0.09,0.79c0,0.7-0.5,1.58-1.49,2.64c-1,1.05-2.29,2.14-3.87,3.25c-1.58,1.11-3.34,2.21-5.27,3.3
		c-1.93,1.08-3.82,2.07-5.67,2.94s-3.55,1.58-5.1,2.11c-1.55,0.53-2.74,0.79-3.56,0.79c-1.05,0-1.9-0.26-2.55-0.79
		c-0.65-0.53-1.17-1.17-1.58-1.93c-0.41-0.76-0.69-1.6-0.83-2.5c-0.15-0.91-0.22-1.8-0.22-2.68c0-0.64,0.2-1.55,0.62-2.72
		c0.41-1.17,0.88-2.37,1.41-3.6s1-2.43,1.41-3.6c0.41-1.17,0.62-2.11,0.62-2.81c0-0.06-0.43-0.29-1.27-0.7
		c-0.85-0.41-1.77-0.86-2.77-1.36c-1-0.5-1.92-0.94-2.77-1.32c-0.85-0.38-1.27-0.6-1.27-0.66c-1.29,1.35-2.18,2.78-2.68,4.31
		c-0.5,1.52-1,3.11-1.49,4.75c-0.5,1.64-1.23,3.28-2.2,4.92c-0.97,1.64-2.59,3.25-4.88,4.83c-0.06,0-0.19-0.03-0.4-0.09
		c-0.2-0.06-0.41-0.22-0.62-0.48c-0.2-0.26-0.37-0.67-0.48-1.23C144.22,71.3,144.19,70.49,144.25,69.44z"/>
	<path class="st0" d="M187.49,66.19c0.12-0.35,0.31-0.98,0.57-1.89c0.26-0.91,0.53-1.89,0.79-2.94s0.5-2.07,0.7-3.03
		c0.2-0.97,0.37-1.63,0.48-1.98c0.35-1.41,0.78-2.93,1.27-4.57c0.5-1.64,1.19-3.16,2.07-4.57s2.01-2.56,3.38-3.47
		c1.38-0.91,3.09-1.36,5.14-1.36c0.76,0,1.3,0.28,1.63,0.83c0.32,0.56,0.6,1.16,0.83,1.8c0,0.23,0.01,0.66,0.04,1.27
		c0.03,0.62,0.04,1.04,0.04,1.27c0,2.52-0.25,4.75-0.75,6.68c-0.5,1.93-1.26,3.72-2.29,5.36c-1.03,1.64-2.27,3.18-3.74,4.61
		c-1.47,1.44-3.14,2.94-5.01,4.53c-0.06,0.18-0.15,0.47-0.26,0.88c-0.12,0.41-0.18,0.7-0.18,0.88v0.18c0,1.05,0.18,1.9,0.53,2.55
		c0.35,0.65,0.83,1.16,1.45,1.54c0.62,0.38,1.32,0.62,2.11,0.7s1.65,0.13,2.59,0.13c2.75,0,5.39-0.38,7.91-1.14
		c2.52-0.76,4.83-1.99,6.94-3.69c0.29-0.29,0.66-0.72,1.1-1.27c0.44-0.56,0.89-1.13,1.36-1.71c0.47-0.58,0.97-1.1,1.49-1.54
		s1.08-0.66,1.67-0.66c0.58,0,0.94,0.23,1.05,0.7c0.12,0.47,0.18,0.94,0.18,1.41c0,1.29-0.4,2.5-1.19,3.65s-1.82,2.17-3.08,3.08
		c-1.26,0.91-2.7,1.71-4.31,2.42c-1.61,0.7-3.21,1.29-4.79,1.76c-1.58,0.47-3.09,0.82-4.53,1.05c-1.44,0.23-2.65,0.35-3.65,0.35
		c-3.11,0-5.7-0.51-7.78-1.54c-2.08-1.02-3.5-3.09-4.26-6.2L187.49,66.19z M200.06,48.87c-1.17,1.05-2.1,2.01-2.77,2.86
		c-0.67,0.85-1.2,1.73-1.58,2.64c-0.38,0.91-0.7,1.89-0.97,2.94s-0.54,2.29-0.83,3.69c1.11-0.88,2.04-1.76,2.77-2.64
		c0.73-0.88,1.33-1.79,1.8-2.72c0.47-0.94,0.82-1.95,1.05-3.03C199.77,51.53,199.94,50.28,200.06,48.87z"/>
	<path class="st0" d="M220.54,63.99c0.18-0.18,0.29-0.29,0.35-0.35c0.12-0.53,0.35-1.44,0.7-2.72c0.35-1.29,0.73-2.68,1.14-4.17
		c0.41-1.49,0.8-2.89,1.19-4.17c0.38-1.29,0.66-2.17,0.83-2.64c0.06-0.23,0.25-0.75,0.57-1.54c0.32-0.79,0.69-1.65,1.1-2.59
		c0.41-0.94,0.82-1.87,1.23-2.81c0.41-0.94,0.7-1.64,0.88-2.11c0.41-0.82,1.04-1.9,1.89-3.25c0.85-1.35,1.82-2.62,2.9-3.82
		c1.08-1.2,2.21-2.25,3.38-3.16c1.17-0.91,2.25-1.36,3.25-1.36c0.53,0,0.95,0.15,1.27,0.44c0.32,0.29,0.56,0.63,0.7,1.01
		c0.15,0.38,0.25,0.81,0.31,1.27c0.06,0.47,0.09,0.88,0.09,1.23c0,3.05-0.43,6.08-1.27,9.1c-0.85,3.02-2.01,5.9-3.47,8.66
		c-1.47,2.75-3.21,5.35-5.23,7.78c-2.02,2.43-4.15,4.61-6.37,6.55c-0.06,0.18-0.13,0.53-0.22,1.05s-0.16,0.91-0.22,1.14v0.18
		c0,1.17,0.31,2.11,0.92,2.81s1.36,1.22,2.24,1.54c0.88,0.32,1.86,0.54,2.94,0.66c1.08,0.12,2.12,0.18,3.12,0.18
		c0.53,0,1.3-0.26,2.33-0.79c1.02-0.53,2.08-1.13,3.16-1.8c1.08-0.67,2.15-1.27,3.21-1.8s1.85-0.79,2.37-0.79s0.94,0.18,1.23,0.53
		c0.29,0.35,0.44,0.79,0.44,1.32c0,0.88-0.67,1.82-2.02,2.81c-1.35,1-2.9,1.92-4.66,2.77c-1.76,0.85-3.44,1.57-5.05,2.15
		c-1.61,0.59-2.68,0.88-3.21,0.88c-1.76,0.35-3.4,0.37-4.92,0.04c-1.52-0.32-2.84-0.88-3.96-1.67c-1.11-0.79-2.04-1.76-2.77-2.9
		c-0.73-1.14-1.19-2.33-1.36-3.56L220.54,63.99z M237.15,37.8c-0.53,0-1.13,0.43-1.8,1.27c-0.67,0.85-1.33,1.83-1.98,2.94
		c-0.65,1.11-1.22,2.18-1.71,3.21c-0.5,1.03-0.78,1.71-0.83,2.07c-0.18,0.41-0.44,1.08-0.79,2.02c-0.35,0.94-0.7,1.92-1.05,2.94
		c-0.35,1.03-0.69,2.01-1.01,2.94c-0.32,0.94-0.54,1.61-0.66,2.02h0.44c0.7-0.88,1.27-1.61,1.71-2.2c0.44-0.58,0.91-1.19,1.41-1.8
		c0.5-0.62,0.86-1.13,1.1-1.54c0.23-0.35,0.56-0.89,0.97-1.63c0.41-0.73,0.67-1.19,0.79-1.36c0.23-0.64,0.56-1.51,0.97-2.59
		c0.41-1.08,0.79-2.15,1.14-3.21s0.66-1.98,0.92-2.77s0.4-1.24,0.4-1.36V37.8z"/>
	<path class="st0" d="M246.38,61.44c0.06-0.29,0.23-0.82,0.53-1.58c0.29-0.76,0.6-1.58,0.92-2.46c0.32-0.88,0.63-1.7,0.92-2.46
		c0.29-0.76,0.5-1.29,0.62-1.58c0.35-0.94,0.69-1.55,1.01-1.85c0.32-0.29,0.92-0.44,1.8-0.44c0.94,0,1.55,0.32,1.85,0.97
		c0.29,0.65,0.44,1.41,0.44,2.29c0,1.52-0.22,2.92-0.66,4.17c-0.44,1.26-0.92,2.52-1.45,3.78c-0.53,1.26-1.01,2.61-1.45,4.04
		c-0.44,1.44-0.66,3.09-0.66,4.97c0,0.23,0,0.57,0,1.01s0.03,0.88,0.09,1.32c0.06,0.44,0.18,0.82,0.35,1.14
		c0.18,0.32,0.41,0.48,0.7,0.48c1.52,0,3.06-0.31,4.61-0.92c1.55-0.62,3.08-1.35,4.57-2.2c1.49-0.85,2.93-1.79,4.31-2.81
		c1.38-1.02,2.62-1.92,3.74-2.68c0.41-0.29,0.72-0.58,0.92-0.88c0.2-0.29,0.4-0.57,0.57-0.83s0.4-0.5,0.66-0.7
		c0.26-0.2,0.69-0.31,1.27-0.31c0.76,0,1.39,0.16,1.89,0.48c0.5,0.32,0.75,0.89,0.75,1.71c0,0.35-0.02,0.67-0.04,0.97
		c-0.03,0.29-0.19,0.56-0.48,0.79c-0.06,0.18-0.28,0.41-0.66,0.7c-0.38,0.29-0.78,0.6-1.19,0.92c-0.41,0.32-0.79,0.62-1.14,0.88
		s-0.62,0.43-0.79,0.48c-0.06,0-0.22,0.07-0.48,0.22c-0.26,0.15-0.43,0.22-0.48,0.22c-0.06,0.06-0.13,0.13-0.22,0.22
		s-0.13,0.16-0.13,0.22c-1.23,0.94-2.56,1.89-4,2.86c-1.44,0.97-2.94,1.85-4.53,2.64s-3.21,1.45-4.88,1.98s-3.33,0.79-4.97,0.79
		c-1.41,0-2.48-0.37-3.21-1.1c-0.73-0.73-1.27-1.65-1.63-2.77c-0.35-1.11-0.56-2.29-0.62-3.52c-0.06-1.23-0.09-2.34-0.09-3.34
		L246.38,61.44z M250.6,38.33c0-1.05,0.2-1.76,0.62-2.11c0.41-0.35,1.14-0.53,2.2-0.53c0.53,0,1.05,0.1,1.58,0.31
		c0.53,0.21,0.79,0.69,0.79,1.45c0,0.76-0.37,1.47-1.1,2.11c-0.73,0.65-1.45,0.97-2.15,0.97s-1.2-0.22-1.49-0.66
		C250.74,39.43,250.6,38.91,250.6,38.33z"/>
	<path class="st0" d="M277.23,66.19c0.12-0.35,0.31-0.98,0.57-1.89c0.26-0.91,0.53-1.89,0.79-2.94s0.5-2.07,0.7-3.03
		c0.2-0.97,0.37-1.63,0.48-1.98c0.35-1.41,0.78-2.93,1.27-4.57c0.5-1.64,1.19-3.16,2.07-4.57s2.01-2.56,3.38-3.47
		c1.38-0.91,3.09-1.36,5.14-1.36c0.76,0,1.3,0.28,1.63,0.83c0.32,0.56,0.6,1.16,0.83,1.8c0,0.23,0.01,0.66,0.04,1.27
		c0.03,0.62,0.04,1.04,0.04,1.27c0,2.52-0.25,4.75-0.75,6.68c-0.5,1.93-1.26,3.72-2.29,5.36c-1.03,1.64-2.27,3.18-3.74,4.61
		c-1.47,1.44-3.14,2.94-5.01,4.53c-0.06,0.18-0.15,0.47-0.26,0.88c-0.12,0.41-0.18,0.7-0.18,0.88v0.18c0,1.05,0.18,1.9,0.53,2.55
		c0.35,0.65,0.83,1.16,1.45,1.54c0.62,0.38,1.32,0.62,2.11,0.7s1.65,0.13,2.59,0.13c2.75,0,5.39-0.38,7.91-1.14
		c2.52-0.76,4.83-1.99,6.94-3.69c0.29-0.29,0.66-0.72,1.1-1.27c0.44-0.56,0.89-1.13,1.36-1.71c0.47-0.58,0.97-1.1,1.49-1.54
		s1.08-0.66,1.67-0.66c0.58,0,0.94,0.23,1.05,0.7c0.12,0.47,0.18,0.94,0.18,1.41c0,1.29-0.4,2.5-1.19,3.65s-1.82,2.17-3.08,3.08
		c-1.26,0.91-2.7,1.71-4.31,2.42c-1.61,0.7-3.21,1.29-4.79,1.76c-1.58,0.47-3.09,0.82-4.53,1.05c-1.44,0.23-2.65,0.35-3.65,0.35
		c-3.11,0-5.7-0.51-7.78-1.54c-2.08-1.02-3.5-3.09-4.26-6.2L277.23,66.19z M289.8,48.87c-1.17,1.05-2.1,2.01-2.77,2.86
		c-0.67,0.85-1.2,1.73-1.58,2.64c-0.38,0.91-0.7,1.89-0.97,2.94s-0.54,2.29-0.83,3.69c1.11-0.88,2.04-1.76,2.77-2.64
		c0.73-0.88,1.33-1.79,1.8-2.72c0.47-0.94,0.82-1.95,1.05-3.03C289.5,51.53,289.68,50.28,289.8,48.87z"/>
	<path class="st0" d="M309.13,78.14l2.99-17.58V58.1l1.76-11.69c0.18-0.23,0.5-0.37,0.97-0.4c0.47-0.03,0.79-0.04,0.97-0.04
		c0.47,0,1.01,0.16,1.63,0.48c0.62,0.32,0.92,0.75,0.92,1.27v5.98c0.23-0.18,0.64-0.53,1.23-1.05c0.58-0.53,1.22-1.08,1.89-1.67
		c0.67-0.58,1.3-1.14,1.89-1.67c0.58-0.53,0.97-0.91,1.14-1.14c0.64-0.58,1.42-1.08,2.33-1.49c0.91-0.41,1.77-0.62,2.59-0.62
		c1.7,0,3.03,0.53,4,1.58s1.45,2.4,1.45,4.04c0,0.12-0.02,0.19-0.04,0.22c-0.03,0.03-0.04,0.1-0.04,0.22v0.35l-3.34,15.03v7.12
		c1.81,0,3.71-0.37,5.67-1.1c1.96-0.73,3.85-1.65,5.67-2.77c1.81-1.11,3.52-2.39,5.1-3.82c1.58-1.44,2.96-2.83,4.13-4.17h0.35
		c0.41,0,0.75,0.13,1.01,0.4s0.4,0.6,0.4,1.01c0,1.29-0.43,2.56-1.28,3.82c-0.85,1.26-1.93,2.45-3.25,3.56
		c-1.32,1.11-2.84,2.17-4.57,3.16c-1.73,1-3.43,1.85-5.1,2.55s-3.29,1.26-4.88,1.67c-1.58,0.41-2.93,0.62-4.04,0.62
		c-1.11,0-1.99-0.2-2.64-0.62c-0.65-0.41-1.13-0.95-1.45-1.63c-0.32-0.67-0.53-1.42-0.62-2.24c-0.09-0.82-0.13-1.7-0.13-2.64v-1.14
		l3.43-17.05v-2.9c-1.41,0-2.8,0.62-4.18,1.85s-2.61,2.72-3.69,4.48c-1.08,1.76-2.02,3.55-2.81,5.36c-0.79,1.82-1.36,3.31-1.71,4.48
		c-0.12,0.41-0.29,1.14-0.53,2.2c-0.23,1.05-0.45,2.17-0.66,3.34c-0.21,1.17-0.4,2.29-0.57,3.34s-0.29,1.82-0.35,2.29
		c0.06,0.35-0.04,0.62-0.31,0.79s-0.57,0.31-0.92,0.4s-0.72,0.13-1.1,0.13c-0.38,0-0.69,0-0.92,0c-0.53,0-1.05-0.09-1.58-0.26
		s-0.79-0.62-0.79-1.32V78.14z"/>
</g>
<g>
</g>
<g>
</g>
<g>
</g>
<g>
</g>
<g>
</g>
<g>
</g>
<g>
</g>
<g>
</g>
<g>
</g>
<g>
</g>
<g>
</g>
<g>
</g>
<g>
</g>
<g>
</g>
<g>
</g>
</svg>
