<?xml version="1.0" encoding="utf-8"?>
<!-- Generator: Adobe Illustrator 24.0.1, SVG Export Plug-In . SVG Version: 6.00 Build 0)  -->
<svg version="1.1" id="Calque_1" xmlns="http://www.w3.org/2000/svg" xmlns:xlink="http://www.w3.org/1999/xlink" x="0px" y="0px"
	 viewBox="0 0 360 152" style="enable-background:new 0 0 360 152;" xml:space="preserve">
<style type="text/css">
	.st0{fill:none;stroke:#000000;stroke-miterlimit:10;}
	.st1{fill:none;}
</style>
<g>
	<path class="st0" d="M114.64,117.81c0-3.4,0.57-6.56,1.71-9.49c1.14-2.93,2.58-5.74,4.31-8.44c1.73-2.7,3.57-5.36,5.54-8
		c1.96-2.64,3.74-5.3,5.32-8h-0.35c-1.35,0-2.67,0.09-3.96,0.26c-1.29,0.18-2.61,0.26-3.96,0.26c-2.75,0-5.22-1-7.38-2.99
		c-2.17-1.99-4-4.5-5.49-7.51c-1.49-3.02-2.65-6.25-3.47-9.71c-0.82-3.46-1.23-6.62-1.23-9.49c0.23-1.76,0.51-3.62,0.83-5.58
		c0.32-1.96,0.75-3.88,1.27-5.76c0.53-1.87,1.19-3.68,1.98-5.41c0.79-1.73,1.77-3.27,2.94-4.61c1.17-1.35,2.58-2.42,4.22-3.21
		c1.64-0.79,3.6-1.22,5.89-1.27c1.11,0,2.14,0.29,3.08,0.88c0.94,0.59,1.74,1.33,2.42,2.24c0.67,0.91,1.23,1.92,1.67,3.03
		c0.44,1.11,0.75,2.23,0.92,3.34l2.99,31.82c0.58-0.35,1.3-0.51,2.15-0.48c0.85,0.03,1.51,0.04,1.98,0.04h2.81
		c0.41,0.41,0.73,0.65,0.97,0.7c0.23,0.06,0.56,0.09,0.97,0.09h0.62c0.47-0.29,1.01-0.64,1.63-1.05c0.62-0.41,1.2-0.75,1.76-1.01
		c0.56-0.26,1.01-0.38,1.36-0.35c0.35,0.03,0.48,0.31,0.4,0.83s-0.45,1.36-1.1,2.5c-0.65,1.14-1.73,2.71-3.25,4.7
		c-0.35,0.82-0.91,1.55-1.67,2.2c-0.76,0.65-1.52,1.32-2.29,2.02c-0.76,0.7-1.44,1.42-2.02,2.15c-0.59,0.73-0.88,1.54-0.88,2.42
		c0,0.12,0.01,0.31,0.04,0.57c0.03,0.26,0.04,0.42,0.04,0.48l3.43,17.14c0.06,1.29,0.1,2.37,0.13,3.25
		c0.03,0.88,0.07,1.77,0.13,2.68c0.06,0.91,0.09,1.65,0.09,2.24v0.44c0,2.05-0.29,4.29-0.88,6.72c-0.59,2.43-1.47,4.7-2.64,6.81
		c-1.17,2.11-2.67,3.88-4.48,5.32c-1.82,1.44-3.96,2.15-6.42,2.15c-1.99,0-3.74-0.47-5.23-1.41c-1.49-0.94-2.75-2.12-3.78-3.56
		c-1.03-1.44-1.8-3.03-2.33-4.79S114.64,119.51,114.64,117.81z M110.33,53.65c0,2.64,0.22,5.49,0.66,8.57s1.16,5.93,2.15,8.57
		c1,2.64,2.34,4.83,4.04,6.59c1.7,1.76,3.87,2.64,6.5,2.64c0.29,0,0.8,0.03,1.54,0.09c0.73,0.06,1.49,0.06,2.29,0
		c0.79-0.06,1.51-0.19,2.15-0.4c0.64-0.2,0.97-0.57,0.97-1.1c0-0.06-0.02-0.1-0.04-0.13c-0.03-0.03-0.04-0.1-0.04-0.22v-0.35
		l-4.31-38.67c-0.12-0.64-0.32-1.29-0.62-1.93c-0.29-0.64-0.65-1.24-1.05-1.8c-0.41-0.56-0.89-1.02-1.45-1.41
		c-0.56-0.38-1.16-0.57-1.8-0.57c-2.17,0-3.96,0.76-5.36,2.29c-1.41,1.52-2.54,3.34-3.38,5.45c-0.85,2.11-1.44,4.32-1.76,6.64
		C110.49,50.21,110.33,52.13,110.33,53.65z M118.95,118.34c0,1,0.18,2.08,0.53,3.25c0.35,1.17,0.86,2.27,1.54,3.3
		c0.67,1.02,1.46,1.87,2.37,2.55c0.91,0.67,1.95,1.01,3.12,1.01c2.05,0,3.69-0.66,4.92-1.98s2.21-2.9,2.94-4.75
		c0.73-1.85,1.22-3.78,1.45-5.8c0.23-2.02,0.35-3.71,0.35-5.05c0-1.99-0.07-3.85-0.22-5.58c-0.15-1.73-0.34-3.44-0.57-5.14
		c-0.23-1.7-0.54-3.4-0.92-5.1c-0.38-1.7-0.83-3.55-1.36-5.54l-0.35,0.35c-0.18,0.18-0.56,0.67-1.14,1.49
		c-0.59,0.82-1.26,1.76-2.02,2.81c-0.76,1.05-1.49,2.11-2.2,3.16s-1.2,1.87-1.49,2.46c-0.88,1.41-1.73,2.84-2.55,4.31
		c-0.82,1.46-1.55,2.97-2.2,4.53c-0.65,1.55-1.17,3.13-1.58,4.75C119.15,114.99,118.95,116.64,118.95,118.34z M134.33,72.73
		c0,0.06,0.01,0.12,0.04,0.18c0.03,0.06,0.04,0.15,0.04,0.26c0,0.18,0.04,0.45,0.13,0.83c0.09,0.38,0.18,0.81,0.26,1.27
		c0.09,0.47,0.19,0.89,0.31,1.27c0.12,0.38,0.18,0.66,0.18,0.83c0.06,0,0.13,0.03,0.22,0.09c0.09,0.06,0.16,0.09,0.22,0.09
		c0.23,0,0.54-0.12,0.92-0.35c0.38-0.23,0.78-0.51,1.19-0.83c0.41-0.32,0.75-0.67,1.01-1.05c0.26-0.38,0.4-0.72,0.4-1.01
		c0-0.23-0.02-0.47-0.04-0.7c-0.03-0.23-0.19-0.38-0.48-0.44c-0.12-0.06-0.37-0.12-0.75-0.18c-0.38-0.06-0.76-0.09-1.14-0.09
		c-0.38,0-0.76-0.03-1.14-0.09c-0.38-0.06-0.66-0.09-0.83-0.09H134.33z"/>
	<path class="st0" d="M146.28,83.27c0-0.18,0-0.62,0-1.32s0-1.17,0-1.41c-1-3.52-1.13-6.97-0.4-10.37c0.73-3.4,2.05-6.46,3.96-9.18
		c1.9-2.72,4.34-5.01,7.29-6.86c2.96-1.85,6.2-2.97,9.71-3.38h1.58c1.29,0,2.36,0.28,3.21,0.83c0.85,0.56,1.52,1.27,2.02,2.15
		c0.5,0.88,0.85,1.88,1.05,2.99c0.2,1.11,0.31,2.23,0.31,3.34c0,1.52-0.16,3-0.48,4.44c-0.32,1.44-0.67,2.89-1.05,4.35
		c-0.38,1.47-0.73,2.92-1.05,4.35c-0.32,1.44-0.48,2.94-0.48,4.53v0.53c0.06,0.12,0.13,0.45,0.22,1.01
		c0.09,0.56,0.16,0.89,0.22,1.01c0.12,0,0.41,0.02,0.88,0.04c0.47,0.03,0.76,0.04,0.88,0.04c0.58,0,1.16-0.01,1.71-0.04
		c0.56-0.03,1.13-0.16,1.71-0.4l16.7-7.73c0.06,0,0.16-0.01,0.31-0.04c0.15-0.03,0.25-0.04,0.31-0.04c0.58,0,1.07,0.18,1.45,0.53
		c0.38,0.35,0.57,0.82,0.57,1.41c0,0.29-0.02,0.57-0.04,0.83c-0.03,0.26-0.19,0.51-0.48,0.75c-0.41,0.29-1.16,0.7-2.24,1.23
		c-1.08,0.53-2.24,1.11-3.47,1.76c-1.23,0.65-2.39,1.26-3.47,1.85c-1.08,0.59-1.86,0.97-2.33,1.14c-0.82,0.47-1.73,0.89-2.72,1.27
		c-1,0.38-2.02,0.75-3.08,1.1s-2.1,0.63-3.12,0.83c-1.03,0.21-1.95,0.31-2.77,0.31c-1.29,0-2.34-0.22-3.16-0.66
		c-0.82-0.44-1.44-1.02-1.85-1.76c-0.41-0.73-0.69-1.61-0.83-2.64c-0.15-1.02-0.16-2.09-0.04-3.21c-1.17,0.94-2.43,1.93-3.78,2.99
		c-1.35,1.05-2.75,2.02-4.22,2.9c-1.47,0.88-2.96,1.64-4.48,2.29c-1.52,0.65-3.08,0.97-4.66,0.97c-0.88,0-1.67-0.22-2.37-0.66
		S146.57,84.21,146.28,83.27z M151.03,81.43c1.35,0,2.84-0.4,4.48-1.19c1.64-0.79,3.25-1.77,4.83-2.94
		c1.58-1.17,3.02-2.42,4.31-3.74c1.29-1.32,2.29-2.5,2.99-3.56c0.06-1.76,0.31-3.44,0.75-5.05c0.44-1.61,0.66-3.27,0.66-4.97
		c0-0.12-0.02-0.29-0.04-0.53c-0.03-0.23-0.04-0.41-0.04-0.53c-0.76-0.64-1.41-1.02-1.93-1.14c-0.53-0.12-1.23-0.18-2.11-0.18
		c-0.12,0-0.37,0-0.75,0c-0.38,0-0.63,0.03-0.75,0.09c-0.35,0.29-0.94,0.83-1.76,1.63c-0.82,0.79-1.69,1.66-2.59,2.59
		c-0.91,0.94-1.76,1.82-2.55,2.64c-0.79,0.82-1.33,1.38-1.63,1.67c-0.06,0-0.18,0.1-0.35,0.31c-0.18,0.21-0.37,0.45-0.57,0.75
		c-0.21,0.29-0.38,0.57-0.53,0.83c-0.15,0.26-0.25,0.48-0.31,0.66l-2.11,10.28V81.43z"/>
	<path class="st0" d="M193.04,84.15l2.99-17.58v-2.46l1.76-11.69c0.18-0.23,0.5-0.37,0.97-0.4c0.47-0.03,0.79-0.04,0.97-0.04
		c0.47,0,1.01,0.16,1.63,0.48c0.62,0.32,0.92,0.75,0.92,1.27v5.98c0.23-0.18,0.64-0.53,1.23-1.05c0.58-0.53,1.22-1.08,1.89-1.67
		c0.67-0.58,1.3-1.14,1.89-1.67c0.58-0.53,0.97-0.91,1.14-1.14c0.64-0.58,1.42-1.08,2.33-1.49c0.91-0.41,1.77-0.62,2.59-0.62
		c1.7,0,3.03,0.53,4,1.58s1.45,2.4,1.45,4.04c0,0.12-0.02,0.19-0.04,0.22c-0.03,0.03-0.04,0.1-0.04,0.22v0.35l-3.34,15.03v7.12
		c1.82,0,3.71-0.37,5.67-1.1c1.96-0.73,3.85-1.65,5.67-2.77c1.82-1.11,3.52-2.39,5.1-3.82c1.58-1.44,2.96-2.83,4.13-4.17h0.35
		c0.41,0,0.75,0.13,1.01,0.4s0.4,0.6,0.4,1.01c0,1.29-0.43,2.56-1.27,3.82c-0.85,1.26-1.93,2.45-3.25,3.56
		c-1.32,1.11-2.84,2.17-4.57,3.16c-1.73,1-3.43,1.85-5.1,2.55s-3.3,1.26-4.88,1.67c-1.58,0.41-2.93,0.62-4.04,0.62
		c-1.11,0-1.99-0.2-2.64-0.62c-0.65-0.41-1.13-0.95-1.45-1.63c-0.32-0.67-0.53-1.42-0.62-2.24c-0.09-0.82-0.13-1.7-0.13-2.64V77.3
		l3.43-17.05v-2.9c-1.41,0-2.8,0.62-4.17,1.85c-1.38,1.23-2.61,2.72-3.69,4.48c-1.08,1.76-2.02,3.55-2.81,5.36
		c-0.79,1.82-1.36,3.31-1.71,4.48c-0.12,0.41-0.29,1.14-0.53,2.2c-0.23,1.05-0.45,2.17-0.66,3.34c-0.21,1.17-0.4,2.29-0.57,3.34
		s-0.29,1.82-0.35,2.29c0.06,0.35-0.04,0.62-0.31,0.79s-0.57,0.31-0.92,0.4s-0.72,0.13-1.1,0.13c-0.38,0-0.69,0-0.92,0
		c-0.53,0-1.05-0.09-1.58-0.26s-0.79-0.62-0.79-1.32V84.15z"/>
</g>
<g>
	<rect x="112.13" y="138.33" class="st1" width="46.07" height="13.67"/>
</g>
<g>
</g>
<g>
</g>
<g>
</g>
<g>
</g>
<g>
</g>
<g>
</g>
<g>
</g>
<g>
</g>
<g>
</g>
<g>
</g>
<g>
</g>
<g>
</g>
<g>
</g>
<g>
</g>
<g>
</g>
</svg>
