<?xml version="1.0" encoding="UTF-8" standalone="no"?>
<svg
   xmlns:dc="http://purl.org/dc/elements/1.1/"
   xmlns:cc="http://creativecommons.org/ns#"
   xmlns:rdf="http://www.w3.org/1999/02/22-rdf-syntax-ns#"
   xmlns:svg="http://www.w3.org/2000/svg"
   xmlns="http://www.w3.org/2000/svg"
   xmlns:sodipodi="http://sodipodi.sourceforge.net/DTD/sodipodi-0.dtd"
   xmlns:inkscape="http://www.inkscape.org/namespaces/inkscape"
   viewBox="0 0 793.70076 1122.5197"
   version="1.1"
   id="svg258"
   sodipodi:docname="TERMINE.svg"
   width="210mm"
   height="297mm"
   inkscape:version="0.92.2 5c3e80d, 2017-08-06">
  <metadata
     id="metadata262">
    <rdf:RDF>
      <cc:Work
         rdf:about="">
        <dc:format>image/svg+xml</dc:format>
        <dc:type
           rdf:resource="http://purl.org/dc/dcmitype/StillImage" />
        <dc:title>TERMINE</dc:title>
      </cc:Work>
    </rdf:RDF>
  </metadata>
  <sodipodi:namedview
     pagecolor="#ffffff"
     bordercolor="#666666"
     borderopacity="1"
     objecttolerance="10"
     gridtolerance="10"
     guidetolerance="10"
     inkscape:pageopacity="0"
     inkscape:pageshadow="2"
     inkscape:window-width="1236"
     inkscape:window-height="638"
     id="namedview260"
     showgrid="false"
     units="mm"
     inkscape:zoom="0.4"
     inkscape:cx="327.915"
     inkscape:cy="462.225"
     inkscape:window-x="0"
     inkscape:window-y="0"
     inkscape:window-maximized="0"
     inkscape:current-layer="svg258" />
  <defs
     id="defs4">
    <style
       id="style2">.cls-1{fill:#859397;}.cls-2{fill:#976f4e;}.cls-3{fill:#9b7554;}.cls-4{fill:#946c4b;}.cls-5{fill:#997251;}.cls-6{fill:#c09d7c;}.cls-7{fill:#c09d7b;}.cls-8{fill:#af8764;}.cls-9{fill:#9a7554;}.cls-10{fill:#ae8561;}.cls-11{fill:#c6a381;}.cls-12{fill:#ae8868;}.cls-13{fill:#b48f6f;}.cls-14{fill:#b28d6d;}.cls-15{fill:#b99676;}.cls-16{fill:#b99677;}.cls-17{fill:#bf9e7e;}.cls-18{fill:#b08b6b;}.cls-19{fill:#c3a17f;}.cls-20{fill:#bc9b7b;}.cls-21{fill:#b69273;}.cls-22{fill:#b39173;}.cls-23{fill:#c7a482;}.cls-24{fill:#a88263;}.cls-25{fill:#ae8b6c;}.cls-26{fill:#b08c6d;}.cls-27{fill:#b59476;}.cls-28{fill:#bc9b7c;}.cls-29{fill:#b08b6c;}.cls-30{fill:#b69374;}.cls-31{fill:#af8d6f;}.cls-32{fill:#af8a6c;}.cls-33{fill:#a5afb2;}.cls-34{fill:#bdac9a;}.cls-35{fill:#987152;}.cls-36{fill:#b7bfc2;}.cls-37{fill:#a17d5e;}.cls-38{fill:#a68061;}.cls-39{fill:#a5b0b3;}.cls-40{fill:#9ea8ab;}.cls-41{fill:#b28966;}.cls-42{fill:#b48c69;}.cls-43{fill:#bb9674;}.cls-44{fill:#b68f6c;}.cls-45{fill:#b8916e;}.cls-46{fill:#b99471;}.cls-47{fill:#b89575;}.cls-48{fill:#bc9a7b;}.cls-49{fill:#997353;}.cls-50{fill:#bd9c7d;}.cls-51{fill:#9fa9ac;}.cls-52{fill:#977152;}.cls-53{fill:#b29172;}.cls-54{fill:#af9378;}.cls-55{fill:#ac896b;}.cls-56{fill:#b08d6e;}.cls-57{fill:#99a4a7;}.cls-58{fill:#b49273;}.cls-59{fill:#97a2a5;}.cls-60{fill:#b0babc;}.cls-61{fill:#b59272;}.cls-62{fill:#a98364;}.cls-63{fill:#ad8a6a;}.cls-64{fill:#a98465;}.cls-65{fill:#ad8969;}.cls-66{fill:#ab8667;}.cls-67{fill:#ab8767;}.cls-68{fill:#926c4d;}.cls-69{fill:#916a4b;}.cls-70{fill:#916b4c;}.cls-71{fill:#ba9778;}.cls-72{fill:#967152;}.cls-73{fill:#be9d7e;}.cls-74{fill:#ba9878;}.cls-75{fill:#b18e6f;}.cls-76{fill:#b59475;}.cls-77{fill:#b39172;}.cls-78{fill:#b59375;}.cls-79{fill:#b18f70;}.cls-80{fill:#946f50;}.cls-81{fill:#b59374;}.cls-82{fill:#946f51;}.cls-83{fill:#957051;}.cls-84{fill:#be9e7f;}.cls-85{fill:#bf9e7f;}.cls-86{fill:#b08a6a;}.cls-87{fill:#a47d5e;}.cls-88{fill:#a78262;}.cls-89{fill:#8d6546;}.cls-90{fill:#8e6747;}.cls-91{fill:#8f6849;}.cls-92{fill:#936d4e;}.cls-93{fill:#936d4f;}.cls-94{fill:#879598;}</style>
  </defs>
  <title
     id="title6">TERMINE</title>
  <g
     id="Calque_2"
     data-name="Calque 2"
     transform="matrix(8.7081308,0,0,7.8738231,179.06783,66.06643)">
    <g
       id="Calque_1-2"
       data-name="Calque 1">
      <path
         class="cls-1"
         d="m 10.11,63.47 a 3.29,3.29 0 0 1 -0.48,-1.93 45.56,45.56 0 0 1 0,-5.48 C 9.76,53.85 9.34,51.94 7.51,50.53 6.6,50.61 6.19,50.23 6.34,49.29 6.44,48.62 6.1,48.34 5.43,48.39 A 1.67,1.67 0 0 1 3.89,47.93 14.61,14.61 0 0 1 0.1,40.33 c -0.38,-2.75 1.07,-4.68 3.29,-6 A 20.53,20.53 0 0 0 5.67,32.81 2.43,2.43 0 0 0 6.25,29.14 7.74,7.74 0 0 1 4.67,25.57 c -0.18,-0.33 0,-0.67 0,-1 a 1.47,1.47 0 0 1 0.36,-0.94 8.62,8.62 0 0 0 1,-0.82 C 6.41,22.39 6.94,22.12 7.2,21.58 a 1.32,1.32 0 0 1 0.75,-0.6 c 0.62,-0.2 1.22,-0.43 1.4,-1.16 0.33,-1 -0.17,-2 0,-3 0.33,-0.57 0.43,-1.27 0.93,-1.74 0.5,-0.47 0.74,-1.23 1.15,-1.81 0.41,-0.58 0.76,-0.86 0.21,-1.57 -0.55,-0.71 0.39,-0.94 0.57,-1.44 a 2.34,2.34 0 0 1 3.18,-0.9 c 1.66,0.76 3.48,1.11 5.12,1.95 0.87,0.44 1.48,-0.3 2.09,-0.8 a 1.11,1.11 0 0 1 1.13,-0.16 25.74,25.74 0 0 1 3.39,1.65 c -1.17,-0.89 -2.43,-1.08 -3.49,-1.7 -0.34,-0.2 -0.72,-0.33 -0.78,-0.8 0,-0.15 0,0 0,-0.11 0.13,-3.61 -2.25,-4 -4.84,-2.89 -1.55,0.68 -2.86,1.75 -4.34,2.53 a 6.06,6.06 0 0 1 -1.42,0.64 c -1.31,-0.25 -0.6,-1 -0.41,-1.63 v 0 a 31.64,31.64 0 0 1 4.32,-4.34 19.39,19.39 0 0 1 5.24,-3 c 1.84,-0.82 3.77,-1 5.49,0.47 a 1.86,1.86 0 0 0 1.21,0.45 c 2.35,0.08 4.7,0.17 6.92,-0.9 0.52,-0.32 1.19,-0.72 1.77,-0.18 0.58,0.54 0.36,1.25 0.18,1.91 -0.41,1.5 -1.06,2.92 -1.41,4.44 -0.61,2.62 0.14,4 2.74,4.76 a 3.29,3.29 0 0 1 0.42,0.21 c 0.75,0.24 1.52,-0.06 2.3,0.13 a 11.58,11.58 0 0 1 3.2,1.06 5.3,5.3 0 0 1 3.59,2.69 c 0.2,0.29 0.24,0.66 0.48,0.93 a 12.86,12.86 0 0 0 4.52,7.09 c 1.66,1.36 1.64,2.29 0.48,4.16 -1,1.57 -2.39,2.77 -3.41,4.3 a 12.89,12.89 0 0 0 -0.8,1.18 1.25,1.25 0 0 0 1.18,2 c 1.59,0.05 3.19,0 4.78,0 a 1.13,1.13 0 0 1 0.16,1.91 3.65,3.65 0 0 0 -0.63,1 7.83,7.83 0 0 0 -1.57,2.89 3.19,3.19 0 0 0 1,3.36 c 0.78,0.67 0.71,1.21 -0.26,1.54 -1.45,0.5 -2.21,1.78 -3.19,2.79 A 2.86,2.86 0 0 1 47.81,50 0.94,0.94 0 0 1 47.56,49.47 c -0.05,-0.2 -0.15,-0.38 -0.39,-0.38 a 0.38,0.38 0 0 0 -0.38,0.39 c 0.06,1.35 -0.8,1.62 -1.9,1.77 -0.81,0.1 -1,0.74 -1.07,1.5 a 17.42,17.42 0 0 0 0.59,7.56 1.71,1.71 0 0 1 0.07,0.71 c 0,0.13 0,0.25 -0.06,0.37 -0.23,0.4 -0.13,0.88 -0.35,1.28 -1,0.85 -1.69,0.73 -2.21,-0.41 a 3.79,3.79 0 0 1 0,-2.92 c 0.7,-2.06 0.42,-4.18 0.26,-6.27 -0.09,-1.21 -0.76,-1.37 -1.73,-0.57 a 1.3,1.3 0 0 1 -0.73,0.36 0.83,0.83 0 0 1 -0.35,-0.06 4.38,4.38 0 0 0 -3.17,-0.64 2.45,2.45 0 0 1 -0.45,-0.17 c -0.42,-0.2 -0.84,-0.59 -1.32,-0.22 -0.48,0.37 -0.21,0.88 -0.19,1.35 a 22.7,22.7 0 0 0 0.63,5.32 3.31,3.31 0 0 1 -0.16,1.89 1.18,1.18 0 0 1 -1,0.92 1.06,1.06 0 0 1 -1.12,-0.73 3.73,3.73 0 0 1 -0.42,-2.66 15.74,15.74 0 0 0 0.52,-5 c -0.07,-1.69 -0.71,-2.1 -2.21,-1.41 a 1.74,1.74 0 0 1 -0.54,0.19 C 28.14,51.5 27.57,52 27.55,53.78 a 23.75,23.75 0 0 0 0.58,7.22 5.13,5.13 0 0 1 0,2.72 c -0.78,0.95 -1.08,1 -2,0.14 a 5.58,5.58 0 0 1 -0.18,-3.5 15.84,15.84 0 0 0 0,-4.86 c 0,-0.63 -0.41,-0.86 -1,-0.42 A 2.27,2.27 0 0 1 23.73,55.77 2.9,2.9 0 0 1 22.68,55.55 1.9,1.9 0 0 0 20,57 6.16,6.16 0 0 0 19.84,58.54 c 0,1.72 0,3.43 0,5.14 0,0.33 0,0.67 0,1 -0.08,1 0.23,2 0.23,3 a 5.55,5.55 0 0 0 0,2.11 c 0,0.89 0,1.78 0,2.67 a 7.13,7.13 0 0 1 0.2,2.3 c 0,0.84 0,1.68 0,2.52 0.2,1.93 0.11,3.91 0.8,5.77 0.39,1.4 0.6,2.78 -0.54,4 a 0.76,0.76 0 0 1 -0.59,0.1 2.1,2.1 0 0 1 -1.12,-1.35 c -0.36,-1.14 0.14,-2.25 0.1,-3.38 A 8,8 0 0 0 19,79 c 0,-1 -0.06,-2 0,-3 0,-0.64 0,-1.28 0,-1.92 0,-1 0,-1.91 0,-2.86 -0.28,-1 -0.12,-2.15 -0.39,-3.2 -0.13,-0.49 -0.15,-1 -0.65,-1.35 -0.92,0.28 -0.44,1.12 -0.64,1.67 a 2.27,2.27 0 0 0 0.12,1.38 c 0.21,1 -0.24,1.88 -0.14,2.83 0.28,1.41 0,2.84 0.25,4.25 0.26,0.84 0.49,1.68 0.73,2.53 a 2.27,2.27 0 0 1 0.07,1.29 1.59,1.59 0 0 1 -1,1.23 c -0.66,0.19 -1,-0.22 -1.33,-0.75 A 3.23,3.23 0 0 1 15.94,78.73 12.54,12.54 0 0 0 16.4,75.18 C 16.4,74 16.02,72.85 16.14,71.67 A 10.92,10.92 0 0 0 15.89,69 13.15,13.15 0 0 1 15.8,67.12 c 0,-0.76 0,-1.51 0,-2.26 0,-0.41 -0.18,-0.79 -0.2,-1.19 a 42.63,42.63 0 0 0 -0.74,-9.3 4.64,4.64 0 0 0 -0.32,-1.16 1.11,1.11 0 0 0 -0.67,-0.64 C 13,52.3 11,53.8 11,54.74 a 18.39,18.39 0 0 0 0.67,5.81 3.39,3.39 0 0 1 0,2.35 c -0.36,0.69 -0.81,1.04 -1.56,0.57 z"
         id="path8"
         inkscape:connector-curvature="0"
         style="fill:#859397" />
      <path
         class="cls-2"
         d="m 19.26,82.43 c 0.25,1.11 -0.51,2.23 0,3.35 -0.14,0.49 -0.56,0.91 -0.43,1.48 0.72,1.33 1.82,2.42 2.48,3.8 A 1,1 0 0 1 20.82,91.96 1.78,1.78 0 0 0 22,91 c 0.62,-0.92 1.22,-1.85 1.84,-2.77 A 1,1 0 0 0 24,87 0.41,0.41 0 0 1 24.12,86.69 c 1.24,-0.13 1.46,0.21 1.15,1.81 -0.76,1.47 -1.83,2.76 -2.57,4.25 0.2,1 1,1.74 1.52,2.62 a 11.71,11.71 0 0 1 0.92,1.51 c 0,0.34 -0.14,0.59 -0.48,0.92 a 1.72,1.72 0 0 0 1,-0.72 c 0.88,-1.21 1.64,-2.51 2.53,-3.71 0.41,-0.55 -0.15,-0.42 -0.33,-0.56 a 45.69,45.69 0 0 1 -2.52,-4.11 0.89,0.89 0 0 1 0.07,-0.36 1.94,1.94 0 0 1 1.69,-0.5 c 1,0.69 1.4,1.85 2.14,2.74 0.13,0.27 0.05,0.54 -0.08,1 a 12.47,12.47 0 0 0 1.76,-2.3 c 0.31,-0.39 0.46,-1 1.05,-1.06 a 1.27,1.27 0 0 1 0.61,0.79 c -0.14,0.91 -0.85,1.5 -1.27,2.25 a 3.44,3.44 0 0 0 -0.59,1.16 c 0.69,1.66 1.95,3 2.82,4.51 a 1.2,1.2 0 0 1 -0.29,0.84 8.54,8.54 0 0 0 2,-2.44 c 0.42,-0.57 0.76,-1.2 1.2,-1.76 0.29,-0.37 0.58,-0.8 1.17,-0.53 A 7.11,7.11 0 0 1 36.56,96.23 10.38,10.38 0 0 0 35,98.85 c 0.23,0.8 1,1.33 1.12,2.15 a 5.26,5.26 0 0 1 -0.47,1.92 c -0.53,0.66 -0.82,0.09 -1.09,-0.25 -0.27,-0.34 -0.59,-1.13 -1.11,-1.52 -0.69,0.23 -0.78,1 -1.17,1.42 -0.39,0.42 -0.59,1.42 -1.46,1.59 a 1.22,1.22 0 0 1 -0.22,-1.79 19.09,19.09 0 0 1 1.88,-2.75 c 0.35,-0.39 0.18,-0.52 -0.19,-0.64 -1,-0.85 -1.53,-2.12 -2.35,-3.14 C 29.68,95.51 29.63,95 29.13,94.9 a 18.4,18.4 0 0 0 -2.45,3.78 c 0.46,1.42 1.53,2.47 2.26,3.72 0.18,0.3 0.51,0.51 0.53,0.89 -0.48,0.65 -1.3,0.28 -1.88,0.65 -0.67,0.07 -0.85,-0.5 -1.14,-0.89 -0.46,-0.6 -0.81,-1.28 -1.29,-1.86 -0.7,0.1 -0.75,0.81 -1.13,1.2 -0.38,0.39 -0.44,1 -1.13,1 a 1.16,1.16 0 0 1 -0.18,-1.77 15.28,15.28 0 0 1 1.82,-2.51 c -0.17,-0.2 -0.46,0 -0.65,-0.19 -1.07,-1 -1.64,-2.42 -2.59,-3.54 -1,0.48 -1.19,1.59 -1.86,2.33 -0.32,0.35 -0.42,1 -1.12,0.84 -0.17,-0.47 -0.08,-1 -0.44,-1.43 v 0 a 0.26,0.26 0 0 1 0,-0.3 c 1.2,-0.79 1.67,-2.17 2.54,-3.22 0.25,-0.3 -0.21,-0.31 -0.36,-0.44 -1.1,-1 -1.63,-2.51 -2.67,-3.58 -0.69,0.38 -1.18,0.4 -1.18,-0.59 a 0.69,0.69 0 0 0 -0.24,-0.51 35.21,35.21 0 0 0 -1,-4.06 c -0.2,-0.72 0,-1.52 -0.45,-2.19 v 0 a 0.46,0.46 0 0 1 0,-0.64 c 0.25,-0.23 0.44,0 0.57,0.2 0.63,0.78 1.14,1.63 1.69,2.46 0.34,0.51 0.58,0.5 1,0 0.42,-0.5 0.53,-1.62 1.48,-1.82 z"
         id="path10"
         inkscape:connector-curvature="0"
         style="fill:#976f4e" />
      <path
         class="cls-3"
         d="m 19.79,72.58 v -2.87 a 1.73,1.73 0 0 0 0,-1.95 17.89,17.89 0 0 1 -0.21,-3.1 0.31,0.31 0 0 1 0.28,-0.08 1.58,1.58 0 0 1 0.56,0.29 c 0.54,0.65 1.06,1.32 1.59,2 0.05,0.31 -0.31,0.45 -0.31,0.78 a 7.45,7.45 0 0 0 1.8,-2.21 c 0.47,-0.64 1,-1 1.82,-0.58 0.18,0.6 -0.3,0.93 -0.54,1.35 a 12.93,12.93 0 0 0 -1.48,2.51 c 0.62,1.52 1.79,2.7 2.57,4.13 a 1.13,1.13 0 0 1 -0.3,0.73 c 1.23,-1.12 1.91,-2.65 2.92,-3.93 0.39,-0.48 -0.29,-0.39 -0.4,-0.62 -0.61,-1.07 -1.33,-2.07 -2,-3.11 -0.21,-0.34 -0.64,-0.68 -0.21,-1.15 a 3.22,3.22 0 0 1 1.87,-0.07 c 1,0.49 1.32,1.52 1.93,2.32 0,0.38 0,0.72 -0.16,0.75 0.62,-0.38 1,-1.33 1.55,-2.06 0.55,-0.73 1,-1.33 1.94,-0.84 0.28,0.54 -0.14,0.89 -0.37,1.29 A 21.78,21.78 0 0 0 31,68.75 c 0.55,1.54 1.75,2.67 2.51,4.07 0,0.35 -0.11,0.61 -0.51,0.91 a 2.93,2.93 0 0 0 1.4,-1.33 20.64,20.64 0 0 1 1.91,-2.71 c 0.66,-0.66 -0.19,-0.44 -0.31,-0.64 -0.88,-1.3 -2,-2.45 -2.46,-4 a 0.46,0.46 0 0 1 0.23,-0.28 3.16,3.16 0 0 1 1.9,0 5.56,5.56 0 0 1 1.7,2.23 c 0.06,0.24 -0.1,0.46 -0.12,0.77 a 11.21,11.21 0 0 0 1.81,-2.37 c 0.47,-0.64 1,-1 1.82,-0.58 0.18,0.6 -0.31,0.94 -0.54,1.37 a 13.22,13.22 0 0 0 -1.51,2.53 23.22,23.22 0 0 0 2.17,3.55 c 0.66,-0.37 0.63,-1.41 1.56,-1.37 l -0.77,3.6 a 8.58,8.58 0 0 1 -1.61,3.62 c -0.49,0.64 -0.94,0.8 -1.49,0.09 0,-1.41 1.11,-2.15 1.8,-3.18 -0.13,-0.16 -0.42,0 -0.6,-0.19 -1,-1.09 -1.58,-2.46 -2.56,-3.55 -0.72,0 -0.79,0.69 -1.09,1.09 a 10.78,10.78 0 0 0 -1.33,2.1 c -0.07,0.58 0.4,0.91 0.62,1.36 0.22,0.45 0.64,0.75 0.16,1.23 a 3.39,3.39 0 0 1 -1.58,0.1 1.79,1.79 0 0 1 -0.62,-0.23 c -0.32,-0.21 -0.59,0.17 -0.9,0.08 a 0.76,0.76 0 0 1 -0.54,-0.58 c -0.06,-0.49 0.28,-0.78 0.53,-1.13 0.25,-0.35 -0.28,-0.27 -0.37,-0.45 a 17.69,17.69 0 0 1 -1.89,-2.59 c -0.29,-0.37 -0.43,-0.87 -0.93,-1 a 12.7,12.7 0 0 0 -2.23,3.3 c 0,0.63 0.89,1 0.43,1.78 -0.54,0.27 -1.15,0.11 -1.71,0.27 a 1.35,1.35 0 0 1 -0.35,0 0.9,0.9 0 0 1 -0.32,-0.13 1.71,1.71 0 0 1 -0.34,-1 c 0.23,-0.62 -0.4,-0.51 -0.64,-0.73 -0.84,-1.21 -1.59,-2.5 -2.49,-3.67 -0.58,0.07 -0.62,0.66 -0.94,1 -0.32,0.34 -0.44,0.82 -1.01,0.49 z"
         id="path12"
         inkscape:connector-curvature="0"
         style="fill:#9b7554" />
      <path
         class="cls-4"
         d="m 32.21,98.74 1.29,0.07 A 16.1,16.1 0 0 0 31,102 a 1.6,1.6 0 0 0 -0.23,2 c 0,0.31 -0.15,0.58 -0.1,0.89 a 37.13,37.13 0 0 0 2.12,3.31 c 0.15,0.22 0.34,0.55 0.65,0.38 1.24,-0.68 0.73,0.27 0.72,0.75 l -0.45,1.91 c -0.2,0.09 -0.29,0.36 -0.56,0.33 a 1.85,1.85 0 0 1 -1,-0.24 c -1.16,-1.22 -1.82,-2.8 -2.95,-4 a 10.69,10.69 0 0 0 -2.71,4 30.51,30.51 0 0 0 2.88,4.25 c 0.05,0.3 -0.21,0.48 -0.46,0.92 a 6.63,6.63 0 0 0 1.89,-2.23 c 0.45,-0.61 0.81,-1.29 1.28,-1.88 0.29,-0.35 0.54,-0.83 1.15,-0.62 0.27,1.23 -0.37,2.16 -0.94,3.16 -0.57,1 -1.54,1.62 -1.48,2.85 a 3,3 0 0 1 0.41,3.32 v 0 c -0.35,0.61 -0.69,0.69 -1.12,0 -0.3,-0.44 -0.46,-1 -1.06,-1.21 a 14.79,14.79 0 0 0 -2,2.75 5.94,5.94 0 0 1 -1.04,1.41 0.93,0.93 0 0 1 -1.06,-0.73 c 0.08,-0.86 0.83,-1.32 1.23,-2 0.72,-1.18 1.5,-2.33 2.32,-3.45 -0.2,-0.09 -0.41,0 -0.58,-0.16 A 42.74,42.74 0 0 0 25,113.55 c -0.69,0.29 -0.83,1 -1.25,1.52 -0.42,0.52 -0.57,1.07 -1.2,1.27 a 0.34,0.34 0 0 1 -0.3,-0.12 c -0.34,-0.33 -0.22,-0.74 -0.21,-1.13 a 18,18 0 0 1 1.95,-3 c 0.3,-0.41 0.28,-0.6 -0.2,-0.74 a 25.94,25.94 0 0 1 -2.34,-3.27 c -0.25,-0.34 -0.39,-0.81 -1,-0.68 -0.37,0.08 -0.33,-0.22 -0.38,-0.45 a 2.61,2.61 0 0 0 -0.35,-1.24 31.72,31.72 0 0 1 -1,-4.32 c -0.14,-0.33 -0.29,-0.76 0.09,-0.92 0.38,-0.16 0.53,0.28 0.7,0.53 a 17.06,17.06 0 0 1 1.23,1.88 c 0.93,-1.38 1.57,-3 3,-4.13 h 1.32 a 19.59,19.59 0 0 0 -2.09,2.66 1.49,1.49 0 0 0 -0.2,1.9 c 0.3,0.74 -0.78,1.17 -0.43,1.91 0.63,1.07 1.36,2.07 2,3.11 A 2.32,2.32 0 0 1 25,109.5 c 0,0.25 -0.09,0.46 -0.54,0.77 a 1.81,1.81 0 0 0 1.32,-1 c 0.82,-1.18 1.55,-2.42 2.42,-3.57 0.58,-0.75 -0.44,-0.24 -0.4,-0.55 -0.22,-0.44 -0.71,-0.82 -0.39,-1.41 0.07,-0.56 0.5,-0.47 0.87,-0.49 0.37,-0.02 0.77,0.13 1.05,-0.25 a 0.7,0.7 0 0 1 0.13,-0.77 c 0.93,-1.12 1.37,-2.67 2.75,-3.49 z"
         id="path14"
         inkscape:connector-curvature="0"
         style="fill:#946c4b" />
      <path
         class="cls-5"
         d="m 25.75,76.42 c 0.59,-0.47 1.28,-0.14 1.91,-0.24 1.14,0.4 1.33,1.6 2,2.37 a 1,1 0 0 1 -0.31,0.86 c 0.88,-0.45 1.2,-1.37 1.77,-2.08 0.3,-0.38 0.42,-1 1.1,-0.91 a 0.8,0.8 0 0 0 0.49,0.48 c 0.32,0.49 -0.08,0.81 -0.28,1.15 -0.44,0.74 -1,1.4 -1.36,2.17 0.09,1.11 1,1.75 1.47,2.65 0.27,0.52 0.73,0.93 1,1.48 0.08,0.32 -0.2,0.54 -0.28,1 a 29.3,29.3 0 0 0 3,-4.19 C 36.44,80.9 36.18,80.74 36,80.58 a 25.26,25.26 0 0 1 -1.89,-2.71 c -0.19,-0.29 -0.44,-0.59 -0.17,-1 h 1.93 c 0.7,0.36 1,1.08 1.35,1.68 0.14,0.24 -0.08,0.51 0.06,0.76 0.56,-0.18 0.58,-1 1.2,-1.06 1.31,0.6 0.44,1.51 0.34,2.31 0.27,0.57 0.7,1 1,1.59 0.19,0.38 0.41,0.77 0.16,1.22 a 0.44,0.44 0 0 1 -0.05,0.22 5.31,5.31 0 0 0 -0.42,1.46 v 0 c -0.57,0.14 -0.75,-0.34 -1,-0.66 a 9.68,9.68 0 0 0 -1.22,-1.62 c -1,0.87 -1.54,2.15 -2.31,3.21 0.42,1.45 1.5,2.49 2.26,3.73 a 0.47,0.47 0 0 0 0.53,0.18 c 1,-0.22 0.6,0.44 0.53,0.89 a 3,3 0 0 1 -0.3,1.48 0.74,0.74 0 0 1 -0.44,0.46 1.34,1.34 0 0 1 -1.28,-0.16 c -1.07,-1.24 -1.77,-2.74 -2.81,-4 -0.41,-0.15 -0.53,0.51 -1,0.34 a 0.72,0.72 0 0 1 -0.48,-0.72 c -0.25,-0.77 0.52,-1.07 0.77,-1.61 -0.19,-0.1 -0.4,-0.09 -0.57,-0.19 a 28.3,28.3 0 0 1 -2.52,-3.46 c -0.44,-0.23 -0.57,0.17 -0.72,0.4 a 37.27,37.27 0 0 0 -2.08,3.2 c -0.08,0.51 0.58,0.87 0.3,1.42 -0.52,0.27 -1.18,0.09 -1.66,0.48 a 0.33,0.33 0 0 1 -0.48,0 c 0,-0.72 0.61,-1.82 -0.94,-1.69 -1.09,-1 -1.65,-2.36 -2.55,-3.48 a 0.75,0.75 0 0 0 -0.6,-0.11 5,5 0 0 1 -0.7,-2.34 c -0.12,-1.14 -0.15,-2.28 -0.22,-3.42 1,0.11 1.15,1 1.52,1.68 a 1.45,1.45 0 0 1 -0.26,0.78 c 1.16,-0.89 1.7,-2.26 2.58,-3.37 0.32,-0.41 0.42,-1.09 1.17,-1 a 1.73,1.73 0 0 1 0.24,1 c 0.21,0.6 -0.27,0.95 -0.51,1.38 a 25.24,25.24 0 0 0 -1.73,3 22.79,22.79 0 0 0 2.54,4 c 0.06,0.26 -0.1,0.45 -0.31,0.79 a 2.07,2.07 0 0 0 0.95,-0.92 c 0.74,-1.07 1.43,-2.19 2.21,-3.24 0.25,-0.34 0.38,-0.61 -0.11,-0.83 a 19.84,19.84 0 0 1 -2.51,-3.53 0.57,0.57 0 0 1 -0.05,-0.7 z"
         id="path16"
         inkscape:connector-curvature="0"
         style="fill:#997251" />
      <path
         class="cls-6"
         d="m 39.66,11.62 a 1.75,1.75 0 0 1 0,-0.24 C 40.3,9.85 40.3,9.85 38.9,9.09 c 0,0 -0.06,-0.06 -0.1,-0.07 -0.7,-0.3 -0.16,-0.76 0,-0.93 0.56,-0.6 0.08,-2 1.36,-1.94 0.52,0 1.28,0.66 1.48,0.49 a 4.94,4.94 0 0 0 1,-1.72 C 43.79,2.46 45.52,1.84 48,3 50.68,4.32 50.67,4.32 49.54,7.08 49.3,7.67 49.01,7.91 48.38,7.53 A 3.47,3.47 0 0 0 46.89,7 c -0.81,-0.08 -0.88,0.54 -1.11,1 -0.23,0.46 0.29,0.62 0.59,0.82 a 0.84,0.84 0 0 0 0.21,0.11 c 1.74,0.84 1.74,0.6 0.87,2.48 -0.58,1.23 -1.2,1.08 -2.07,0.5 -0.68,-0.45 -1.31,-0.66 -1.62,0.4 A 0.84,0.84 0 0 1 42.88,12.46 11.4,11.4 0 0 0 40.23,12 c -0.23,0 -0.6,0.08 -0.57,-0.38 z"
         id="path18"
         inkscape:connector-curvature="0"
         style="fill:#c09d7c" />
      <path
         class="cls-7"
         d="m 10.11,63.47 c 1.25,-0.1 1.71,-0.82 1.31,-2.26 a 22.63,22.63 0 0 1 -0.8,-6.85 c 0,-0.89 0.23,-1.51 1.27,-1.45 a 1.29,1.29 0 0 0 0.95,-0.41 c 0.88,-0.77 1.51,-0.65 2,0.45 a 13.81,13.81 0 0 1 0.8,3.71 43.55,43.55 0 0 1 0.27,7 c -1.42,0.75 -2.94,0.25 -4.42,0.37 a 1.54,1.54 0 0 1 -1.32,-0.37 z"
         id="path20"
         inkscape:connector-curvature="0"
         style="fill:#c09d7b" />
      <path
         class="cls-8"
         d="m 39.43,52.65 c 0.51,0 0.73,-0.4 1,-0.76 0.57,-0.77 1.13,-0.77 1.65,0.06 a 1.53,1.53 0 0 1 0.27,0.52 16.57,16.57 0 0 1 -0.14,6.69 4.14,4.14 0 0 0 -0.13,2.78 c 0.46,1.19 0.81,1.31 1.9,0.54 0.33,-0.34 0,-0.83 0.25,-1.18 v 0 a 0.3,0.3 0 0 1 0.46,0 A 8,8 0 0 1 44,63.71 9.34,9.34 0 0 1 38.71,63.81 2.31,2.31 0 0 1 38.35,62 c 0.18,-2.71 0.37,-5.41 0.66,-8.11 a 1.72,1.72 0 0 1 0.42,-1.24 z"
         id="path22"
         inkscape:connector-curvature="0"
         style="fill:#af8764" />
      <path
         class="cls-9"
         d="m 16.11,64.66 v 2.4 c -0.24,0.72 -0.76,1.29 -1,2 0.26,0.94 1.07,1.59 1.28,2.54 l 0.22,3.62 a 0.26,0.26 0 0 1 -0.3,0 C 15.37,74.1 14.7,72.79 13.8,71.65 c -0.33,-0.26 -0.47,0.06 -0.65,0.23 -0.49,0.46 -0.8,0.25 -1,-0.27 -0.43,-2.25 -0.91,-4.48 -1.52,-6.68 a 0.39,0.39 0 0 1 0.3,-0.46 9.85,9.85 0 0 1 5.18,0.19 z"
         id="path24"
         inkscape:connector-curvature="0"
         style="fill:#9a7554" />
      <path
         class="cls-10"
         d="m 44.68,61.3 h -0.46 c 0,-1.51 -0.69,-2.89 -0.85,-4.4 a 43,43 0 0 1 0.21,-5.09 c 0,-1 1.1,-1 1.88,-1.05 0.78,-0.05 1,-0.16 0.93,-0.88 -0.07,-0.72 -0.08,-1.5 1.06,-1.3 1.14,0.2 0.09,1 0.36,1.38 a 57.38,57.38 0 0 0 -1.89,6.5 c -0.49,1.59 -0.83,3.23 -1.24,4.84 z"
         id="path26"
         inkscape:connector-curvature="0"
         style="fill:#ae8561" />
      <path
         class="cls-11"
         d="m 38.71,63.69 h 5.3 c -0.07,0.49 0.08,1 -0.23,1.47 A 2.53,2.53 0 0 1 43.11,65.06 31.31,31.31 0 0 0 38.26,65 c -1.73,0.25 -3.47,-0.27 -5.23,-0.18 -0.79,0 -1.56,0.24 -2.36,0.25 -1.83,0 -3.64,-0.33 -5.47,-0.26 A 26.53,26.53 0 0 1 22,65 8,8 0 0 1 19.77,64.66 h -0.23 c 0,-0.32 0,-0.64 0,-1 1.21,-0.69 2.53,-0.25 3.8,-0.35 1,0 2,-0.26 2.9,0.34 0.55,0.68 1.1,0.69 1.65,0 a 1.75,1.75 0 0 1 1.25,-0.33 c 0.81,0 1.61,0 2.41,0 q 1.9,0 3.81,0 c 1.12,0.1 2.29,-0.27 3.35,0.37 z"
         id="path28"
         inkscape:connector-curvature="0"
         style="fill:#c6a381" />
      <path
         class="cls-6"
         d="m 10.16,15 a 2.44,2.44 0 0 1 -0.65,1.64 c -0.4,-0.21 -0.7,-0.53 -1.29,-0.38 -0.59,0.15 -0.94,-0.28 -0.71,-1 a 38.45,38.45 0 0 0 -4.79,2 1.22,1.22 0 0 0 -0.78,1.47 c 0.76,2 1.16,4.24 2.89,5.78 a 1.24,1.24 0 0 1 -0.2,1 c -1.15,0.28 -1.68,-0.59 -2.07,-1.32 -0.76,-1.46 -1.33,-3 -2,-4.55 a 3,3 0 0 1 1.29,-3.51 c 1.4,-0.66 2.84,-1.21 4.22,-1.89 A 3.45,3.45 0 0 1 10.16,15 Z"
         id="path30"
         inkscape:connector-curvature="0"
         style="fill:#c09d7c" />
      <path
         class="cls-12"
         d="m 25,113.14 a 15.65,15.65 0 0 1 2.88,4.56 14.06,14.06 0 0 1 -2.49,4 c -0.3,0.43 -0.78,0.32 -1.15,0 a 3.42,3.42 0 0 1 -0.71,-1.09 c 0,-0.15 0,0 0,-0.1 0,-0.1 -0.13,-0.35 -0.18,-0.53 -0.12,0.12 -0.07,0.35 -0.26,0.43 a 26.43,26.43 0 0 1 -0.94,-4.12 c 0.08,-0.11 0.16,-0.11 0.25,0 v 0 a 1,1 0 0 1 0.46,0.37 1.11,1.11 0 0 0 1.37,0.4 c 0.53,-0.19 0.42,-0.7 0.47,-1.12 0.09,-0.94 -0.26,-1.94 0.3,-2.8 z"
         id="path32"
         inkscape:connector-curvature="0"
         style="fill:#ae8868" />
      <path
         class="cls-13"
         d="m 23.84,98.74 -3,4.53 L 19,100.6 c -0.3,0.25 -0.09,0.54 -0.17,0.78 a 17.27,17.27 0 0 1 -1,-4.31 c 0.7,0.29 0.43,0.91 0.5,1.42 a 0.9,0.9 0 0 0 0.45,0.13 c 2,0.11 2,0 2.11,-2 0,-0.58 -0.35,-1.38 0.55,-1.71 0.79,1.28 1.56,2.56 2.4,3.83 z"
         id="path34"
         inkscape:connector-curvature="0"
         style="fill:#b48f6f" />
      <path
         class="cls-14"
         d="m 34.18,109.34 -0.07,-0.86 c -0.77,1.09 -1.19,0.56 -1.62,-0.21 a 27.75,27.75 0 0 1 -2.17,-3.52 2.29,2.29 0 0 1 1.59,-0.36 c 0.88,0 1.16,-0.37 1.17,-1.21 0.01,-0.84 -0.25,-1.75 0.35,-2.52 a 4.71,4.71 0 0 1 1.17,1.62 c 0.23,0.36 0.39,0.83 1,0.54 a 62.47,62.47 0 0 1 -1.42,6.52 z"
         id="path36"
         inkscape:connector-curvature="0"
         style="fill:#b28d6d" />
      <path
         class="cls-15"
         d="m 37.27,82.41 c 0.94,0.72 1.14,2 2.18,2.68 a 44.92,44.92 0 0 1 -1.22,5.73 c -0.21,-0.11 0.4,-1.41 -0.58,-0.4 a 0.26,0.26 0 0 1 -0.41,0 C 36.4,88.94 35.05,87.78 34.62,86.06 a 2.73,2.73 0 0 1 2.3,-0.21 c 0.14,-1.17 -0.35,-2.36 0.35,-3.44 z"
         id="path38"
         inkscape:connector-curvature="0"
         style="fill:#b99676" />
      <path
         class="cls-16"
         d="m 19.26,82.43 c -0.45,0.64 -1,1.26 -1.35,1.95 -0.35,0.69 -0.84,1.06 -1.4,0 A 24.17,24.17 0 0 0 14.84,82 C 14.79,81.93 14.76,81.47 14.5,81.87 a 0.8,0.8 0 0 0 0,0.35 9.92,9.92 0 0 1 -0.55,-2.35 l 0.13,-0.1 c 0.61,0 0.53,0.76 1,0.91 0.47,0.15 0.78,0 1.08,0.35 0.3,0.35 0.54,0.93 1.1,0.6 A 1.56,1.56 0 0 0 18,79.74 c -0.25,-1 -0.59,-1.89 -0.89,-2.83 0.35,-0.56 0.66,-0.22 0.91,0.08 a 8.3,8.3 0 0 1 1.24,2.09 5.33,5.33 0 0 1 0,3.35 z"
         id="path40"
         inkscape:connector-curvature="0"
         style="fill:#b99677" />
      <path
         class="cls-17"
         d="m 42.56,70.9 c -0.54,0.32 -0.73,0.92 -1.08,1.39 -0.23,0.3 -0.44,0.6 -0.76,0.06 A 24.47,24.47 0 0 1 38.47,68.74 1.76,1.76 0 0 1 39.8,68.4 c 0.7,0 1,-0.35 1,-1 a 5.89,5.89 0 0 1 0.17,-2.21 c 0.32,-0.64 0.65,-0.21 0.89,0 a 10,10 0 0 1 1.11,1.55 3,3 0 0 1 0.36,0.57 20.88,20.88 0 0 1 -0.77,3.59 z"
         id="path42"
         inkscape:connector-curvature="0"
         style="fill:#bf9e7e" />
      <path
         class="cls-18"
         d="m 19.75,105.7 c 0.69,0.29 0.38,1 0.54,1.5 0.35,-0.3 0.6,-0.6 1,0 0.8,1.37 1.71,2.67 2.57,4 0.15,0.6 -0.33,1 -0.57,1.38 a 6,6 0 0 0 -1.1,2.1 0.89,0.89 0 0 1 -0.29,0.43 C 21.09,112 20.29,108.88 19.75,105.7 Z"
         id="path44"
         inkscape:connector-curvature="0"
         style="fill:#b08b6b" />
      <path
         class="cls-19"
         d="m 7.47,50.53 a 3.54,3.54 0 0 1 2.42,3.61 42.54,42.54 0 0 1 -0.26,7.4 C 9,57.85 7.79,54.28 7.47,50.53 Z"
         id="path46"
         inkscape:connector-curvature="0"
         style="fill:#c3a17f" />
      <path
         class="cls-20"
         d="m 14,71.39 a 25.13,25.13 0 0 1 2.38,3.82 2.42,2.42 0 0 1 -0.61,1.25 8.3,8.3 0 0 0 -1.77,3.29 l -0.11,0.07 c -0.47,-2.17 -0.95,-4.34 -1.42,-6.51 0.7,-0.16 0.64,0.47 0.86,0.86 0.12,-0.61 0,-1.21 0.08,-1.79 C 13.5,72 13.36,71.48 14,71.39 Z"
         id="path48"
         inkscape:connector-curvature="0"
         style="fill:#bc9b7b" />
      <path
         class="cls-21"
         d="m 17.87,96.82 -0.06,0.25 -1.47,-6.48 c 1.24,0.08 0.51,1.16 0.78,1.57 0.21,-0.93 -0.5,-2 0.23,-3 A 23,23 0 0 1 20,93 c 0.14,0.68 -0.39,1.07 -0.7,1.55 -0.49,0.73 -0.95,1.51 -1.43,2.27 z"
         id="path50"
         inkscape:connector-curvature="0"
         style="fill:#b69273" />
      <path
         class="cls-22"
         d="m 38.45,80.51 c 0.17,-0.72 0.83,-1.44 0,-2.17 a 0.42,0.42 0 0 1 0.24,-0.23 c 0.65,0.48 1,0.21 1.42,-0.39 a 19.24,19.24 0 0 0 1.66,-3.22 40.18,40.18 0 0 1 -0.88,4.09 c -0.22,0.15 -0.24,0.4 -0.29,0.63 -0.34,1.62 -0.47,1.69 -2.15,1.29 z"
         id="path52"
         inkscape:connector-curvature="0"
         style="fill:#b39173" />
      <path
         class="cls-23"
         d="m 16.11,64.66 h -4.42 c -0.38,0 -0.81,-0.11 -1.1,0.28 C 9.94,64.7 9.89,64.25 10.17,63.7 h 5.74 C 16,64 16,64.34 16.11,64.66 Z"
         id="path54"
         inkscape:connector-curvature="0"
         style="fill:#c7a482" />
      <path
         class="cls-24"
         d="m 33.2,111.47 0.53,-0.22 a 58,58 0 0 1 -1.49,6.22 2,2 0 0 1 -1.7,0.24 c -0.42,-0.44 0,-0.73 0.21,-1 0.54,-0.87 1.1,-1.73 1.71,-2.56 a 3.25,3.25 0 0 0 0.73,-2.43 c -0.07,0 -0.1,-0.11 -0.07,-0.16 0.03,-0.05 0.05,-0.09 0.08,-0.09 z"
         id="path56"
         inkscape:connector-curvature="0"
         style="fill:#a88263" />
      <path
         class="cls-25"
         d="m 37.51,92.5 0.44,-0.24 c -0.3,1.36 -0.59,2.73 -0.89,4.09 a 2.41,2.41 0 0 0 -0.39,1.33 c -0.19,1.25 -0.81,1.58 -2.05,1.06 0,-0.74 0.58,-1.22 1,-1.76 a 11.65,11.65 0 0 0 1.92,-4 0.33,0.33 0 0 1 -0.03,-0.48 z"
         id="path58"
         inkscape:connector-curvature="0"
         style="fill:#ae8b6c" />
      <path
         class="cls-26"
         d="m 25,123.24 a 1.16,1.16 0 0 0 1,0.7 c 0.32,-0.53 0.84,-0.54 1.37,-0.55 a 2.61,2.61 0 0 0 1.5,-0.31 13.45,13.45 0 0 0 1.13,-1 c 0.29,-0.24 0.56,-0.58 1,-0.3 -0.9,1.55 -2,2.75 -4,2.67 a 3.29,3.29 0 0 1 -3.4,-2.42 c 0.22,-0.14 0.4,0 0.59,0.1 a 2.56,2.56 0 0 1 0.81,1.11 z"
         id="path60"
         inkscape:connector-curvature="0"
         style="fill:#b08c6d" />
      <path
         class="cls-27"
         d="m 14,71.39 c -0.47,0.73 -0.14,1.54 -0.22,2.32 -0.06,0.49 0.06,1 -0.53,1.43 -0.47,-0.53 0.18,-1.53 -0.72,-1.83 a 4.19,4.19 0 0 1 -0.4,-1.69 c 0.35,0.25 0.66,0.61 1,-0.08 0.12,-0.34 0.43,-0.92 0.87,-0.15 z"
         id="path62"
         inkscape:connector-curvature="0"
         style="fill:#b59476" />
      <path
         class="cls-28"
         d="m 38.45,80.51 h 0.12 c 1,-0.18 2.18,0 2,-1.64 0,-0.07 0.24,-0.17 0.36,-0.26 l -1,4.81 c -0.07,-1.2 -1.21,-1.84 -1.48,-2.91 z"
         id="path64"
         inkscape:connector-curvature="0"
         style="fill:#bc9b7c" />
      <path
         class="cls-29"
         d="m 31,121.78 c -0.87,0.16 -1.15,1.1 -1.88,1.44 a 4.43,4.43 0 0 1 0,-3.83 3,3 0 0 1 1.21,1.52 c 0.3,0.64 0.58,0.42 0.94,0.15 A 1,1 0 0 1 31,121.78 Z"
         id="path66"
         inkscape:connector-curvature="0"
         style="fill:#b08b6c" />
      <path
         class="cls-30"
         d="m 34.62,98.74 c 1.66,0 1.66,0 1.93,-1.68 a 0.78,0.78 0 0 1 0.51,-0.71 c -0.34,1.52 -0.67,3 -1,4.55 a 5.83,5.83 0 0 1 -1.44,-2.16 z"
         id="path68"
         inkscape:connector-curvature="0"
         style="fill:#b69374" />
      <path
         class="cls-31"
         d="m 17.35,89.13 v 3.57 c -0.87,-0.62 0,-1.79 -1,-2.11 A 8.39,8.39 0 0 1 15.9,88.43 c 0.59,0.19 0.47,0.72 0.51,1.17 0.44,0.07 0.41,-0.77 0.94,-0.47 z"
         id="path70"
         inkscape:connector-curvature="0"
         style="fill:#af8d6f" />
      <path
         class="cls-32"
         d="m 30.54,117.71 c 0.51,-0.47 1.13,-0.16 1.7,-0.24 a 13.12,13.12 0 0 1 -1,3.58 3.92,3.92 0 0 0 -0.7,-3.34 z"
         id="path72"
         inkscape:connector-curvature="0"
         style="fill:#af8a6c" />
      <path
         class="cls-33"
         d="M 16.14,3.68 A 38.49,38.49 0 0 1 11.82,8 11.26,11.26 0 0 1 16.14,3.68 Z"
         id="path74"
         inkscape:connector-curvature="0"
         style="fill:#a5afb2" />
      <path
         class="cls-34"
         d="m 39.66,11.62 c 0.09,0.06 0.2,0.2 0.28,0.19 1.33,-0.18 2.53,0.49 3.82,0.54 -0.09,0.39 0.29,0.48 0.46,0.7 l -5.5,-1.19 a 1.36,1.36 0 0 0 0.94,-0.24 z"
         id="path76"
         inkscape:connector-curvature="0"
         style="fill:#bdac9a" />
      <path
         class="cls-35"
         d="m 24.07,122.27 -0.5,-0.24 a 4.72,4.72 0 0 1 -0.49,-1.64 l 0.07,-0.82 a 1.73,1.73 0 0 1 0.67,0.78 c -0.41,0.7 0.64,1.22 0.25,1.92 z"
         id="path78"
         inkscape:connector-curvature="0"
         style="fill:#987152" />
      <path
         class="cls-36"
         d="m 54.57,38.28 a 1,1 0 0 1 0.34,-1 c 0.79,-0.61 0.69,-1.27 0.13,-2 1.09,0.25 0.81,1 0.54,1.65 a 2.46,2.46 0 0 1 -1.01,1.35 z"
         id="path80"
         inkscape:connector-curvature="0"
         style="fill:#b7bfc2" />
      <path
         class="cls-37"
         d="m 43.3,67.32 c -0.2,0 -0.4,0 -0.49,-0.27 0.35,-0.68 -0.2,-1.65 0.7,-2.15 l 0.27,0.28 z"
         id="path82"
         inkscape:connector-curvature="0"
         style="fill:#a17d5e" />
      <path
         class="cls-16"
         d="m 14.48,82.18 c 0.81,0.59 0.36,1.44 0.45,2.19 a 6.58,6.58 0 0 1 -0.45,-2.19 z"
         id="path84"
         inkscape:connector-curvature="0"
         style="fill:#b99677" />
      <path
         class="cls-33"
         d="M 12.32,9.47 C 11.17,9.98 11.4,9.12 11.39,8.47 L 11.82,8 c 0.18,0.5 -0.66,1.33 0.5,1.47 z"
         id="path86"
         inkscape:connector-curvature="0"
         style="fill:#a5afb2" />
      <path
         class="cls-38"
         d="m 21.87,115.13 0.05,-0.56 c 0.38,0 0.4,0.21 0.23,0.49 a 2,2 0 0 0 0.24,1.2 h -0.25 c -0.31,-0.32 -0.21,-0.75 -0.27,-1.13 z"
         id="path88"
         inkscape:connector-curvature="0"
         style="fill:#a68061" />
      <path
         class="cls-15"
         d="m 39.45,85.08 c 0,-0.52 -0.19,-1.11 0.42,-1.46 a 2.3,2.3 0 0 1 -0.42,1.46 z"
         id="path90"
         inkscape:connector-curvature="0"
         style="fill:#b99676" />
      <path
         class="cls-39"
         d="m 48.29,16.67 a 0.85,0.85 0 0 1 -0.48,-0.93 1.1,1.1 0 0 1 0.48,0.93 z"
         id="path92"
         inkscape:connector-curvature="0"
         style="fill:#a5b0b3" />
      <path
         class="cls-40"
         d="M 32.47,15.7 C 34.1,16.51 35,18 36,19.42 a 31.73,31.73 0 0 1 3.07,5.49 c 0.1,0.22 0.19,0.62 0.57,0.42 0.38,-0.2 0.26,-0.48 0.18,-0.75 -0.33,-1.14 -0.68,-2.28 -1.12,-3.74 0.56,0.59 0.87,1 1.23,1.29 0.2,0.18 0.2,1.05 0.8,0.26 0.13,-0.17 0.3,0.26 0.42,0.44 A 17.67,17.67 0 0 1 43,27.47 c 0.36,1.29 0.79,2.56 1.13,3.86 l -0.32,-3 a 7.94,7.94 0 0 1 0.88,3.48 c 0,1.65 1,3.07 0.85,4.81 a 18.27,18.27 0 0 1 -1.26,6.05 c -1.77,3.95 -1.61,4 -5.92,3.95 a 3.82,3.82 0 0 1 -0.4,0 20.16,20.16 0 0 0 0.27,-7.7 7.89,7.89 0 0 0 -1.41,-2.84 c -0.38,-0.58 -1.3,-0.23 -1.7,0.72 -0.4,0.95 -0.65,2 -1,2.92 -2.41,6 -8.83,8.6 -14.5,5.28 a 27,27 0 0 1 -4.15,-3.12 c -1.3,-1.15 -1.52,-1.07 -2,0.59 a 8.51,8.51 0 0 1 -2.24,-5.73 13.39,13.39 0 0 1 0.71,-4.87 c 0.36,-1.06 -0.42,-2.1 0.1,-3.17 A 6.88,6.88 0 0 1 12.8,27 c 1.06,-1.21 1.44,-2.81 2.38,-4.11 a 11.51,11.51 0 0 1 10.23,-5 11.58,11.58 0 0 1 5.12,1.4 c 1.19,0.63 2.43,1.15 3.65,1.72 0.41,0.19 0.94,0.43 1.22,0.08 a 1.35,1.35 0 0 0 -0.06,-1.43 22.77,22.77 0 0 0 -2.87,-3.95 z"
         id="path94"
         inkscape:connector-curvature="0"
         style="fill:#9ea8ab" />
      <path
         class="cls-41"
         d="m 38.71,63.69 h -3.36 c -0.48,-0.79 -0.16,-1.64 -0.1,-2.44 0.2,-2.74 0.36,-5.47 0.68,-8.2 A 1.51,1.51 0 0 1 36.31,52 2.61,2.61 0 0 0 36.94,51.7 c 0.63,-0.59 1.14,-0.63 1.63,0.18 a 4.15,4.15 0 0 0 0.86,0.81 c -0.16,3.65 -0.76,7.31 -0.72,11 z"
         id="path96"
         inkscape:connector-curvature="0"
         style="fill:#b28966" />
      <path
         class="cls-42"
         d="m 36.31,52 -1,11.74 h -3.8 a 2.67,2.67 0 0 1 -0.3,-2.18 c 0.39,-2.52 0.37,-5.06 0.66,-7.59 a 5.55,5.55 0 0 1 0.24,-1.4 c 0.1,-0.25 0.18,-0.61 0.5,-0.56 0.32,0.05 0.13,0.49 0.33,0.69 a 14.73,14.73 0 0 1 -0.56,5.3 3.63,3.63 0 0 0 0.51,2.61 0.67,0.67 0 0 0 0.77,0.44 1,1 0 0 0 0.7,-0.75 4.39,4.39 0 0 0 -0.06,-2.8 8.23,8.23 0 0 1 -0.39,-3.17 9.72,9.72 0 0 0 -0.21,-1.78 c -0.09,-0.44 -0.18,-1 0.41,-1.24 0.59,-0.24 1,-0.34 1.39,0.18 A 3.09,3.09 0 0 0 36.31,52 Z"
         id="path98"
         inkscape:connector-curvature="0"
         style="fill:#b48c69" />
      <path
         class="cls-43"
         d="m 23.35,63.7 h -3.81 c 0,-2 -0.05,-4 0,-6 a 2.74,2.74 0 0 1 2,-2.81 c 0.88,-0.23 1.53,0.55 2.36,0.61 a 1.41,1.41 0 0 1 0.35,1.22 c -0.12,2.1 -0.24,4.2 -0.52,6.29 a 1.28,1.28 0 0 1 -0.38,0.69 z"
         id="path100"
         inkscape:connector-curvature="0"
         style="fill:#bb9674" />
      <path
         class="cls-44"
         d="M 32.94,52.66 32.45,52 c -0.38,4 -0.77,7.87 -0.94,11.73 h -2.4 a 1.68,1.68 0 0 1 -0.33,-1.35 c 0.27,-3 0.56,-6.07 0.72,-9.12 a 2.94,2.94 0 0 1 0.56,-1.78 1.51,1.51 0 0 1 1.87,-0.6 1.57,1.57 0 0 1 1.01,1.78 z"
         id="path102"
         inkscape:connector-curvature="0"
         style="fill:#b68f6c" />
      <path
         class="cls-45"
         d="m 30.06,51.45 -0.93,10.7 c 0,0.51 0,1 0,1.55 h -1.24 c 0.26,-1.69 -0.29,-3.29 -0.55,-4.92 a 29.51,29.51 0 0 1 -0.11,-5.94 c 0.06,-1.4 1.22,-1.84 2.83,-1.39 z"
         id="path104"
         inkscape:connector-curvature="0"
         style="fill:#b8916e" />
      <path
         class="cls-46"
         d="m 23.35,63.7 c 0,-2.73 0.55,-5.42 0.48,-8.15 a 2.06,2.06 0 0 0 0.82,-0.65 c 0.28,-0.42 0.68,-0.75 1.2,-0.46 a 1.12,1.12 0 0 1 0.5,1.24 c -0.24,1.22 0.29,2.4 0,3.63 a 7,7 0 0 1 -0.24,1.47 c -0.45,1 0.06,1.94 0.09,2.91 z"
         id="path106"
         inkscape:connector-curvature="0"
         style="fill:#b99471" />
      <path
         class="cls-47"
         d="m 21.67,82.9 a 34.87,34.87 0 0 1 2.42,3.84 1,1 0 0 0 0,0.24 9,9 0 0 1 -2.87,4.09 19.93,19.93 0 0 1 -2.66,-3.84 c 0.36,-0.84 0.92,-0.5 1.47,-0.25 h 0.45 c 1.17,-0.69 0.79,-1.82 0.82,-2.84 -0.02,-0.46 -0.42,-1.04 0.37,-1.24 z"
         id="path108"
         inkscape:connector-curvature="0"
         style="fill:#b89575" />
      <path
         class="cls-48"
         d="m 21.43,79.06 c -0.58,-0.47 -0.72,-1.3 -1.41,-1.67 v -2.65 c 1.27,-0.32 1.41,-1.24 1.35,-2.35 0,-0.6 -0.23,-1.34 0.56,-1.72 0.7,1.43 1.93,2.54 2.43,4.08 a 10.06,10.06 0 0 1 -2.93,4.31 z"
         id="path110"
         inkscape:connector-curvature="0"
         style="fill:#bc9a7b" />
      <path
         class="cls-6"
         d="M 5.78,22.88 C 3.4,21.7 2.83,20.12 4.1,18.22 a 2.64,2.64 0 0 1 2.56,-1.28 2.78,2.78 0 0 1 2.51,1.87 c 0.12,0.37 0.19,0.76 0.29,1.14 -0.08,0.94 -0.88,1 -1.53,1.26 -0.25,-0.42 0,-0.86 0,-1.28 C 7.81,19.09 7.41,18.5 6.51,18.44 A 1.24,1.24 0 0 0 5,19.39 1.79,1.79 0 0 0 6.1,21.3 c 0.37,0.14 0.8,0.06 1.12,0.34 0,0.75 -0.76,0.87 -1.17,1.28 A 0.17,0.17 0 0 1 5.78,22.88 Z"
         id="path112"
         inkscape:connector-curvature="0"
         style="fill:#c09d7c" />
      <path
         class="cls-49"
         d="m 19.27,79.08 a 7.72,7.72 0 0 1 -1.4,-1.9 c -0.22,-0.3 -0.38,-0.49 -0.75,-0.27 -0.22,-1.43 0.1,-2.88 -0.22,-4.3 0.61,0.13 0.9,-0.23 1.21,-0.68 0.31,-0.45 0.42,-1.07 1.14,-1 V 74 a 1.84,1.84 0 0 0 0,1.92 z"
         id="path114"
         inkscape:connector-curvature="0"
         style="fill:#997353" />
      <path
         class="cls-50"
         d="M 19.25,70.89 A 4.74,4.74 0 0 0 18,72.57 c -0.43,0.76 -0.72,0.61 -1.11,0 0.07,-1 0.13,-2.1 0.2,-3.14 a 25.65,25.65 0 0 1 0.73,-3.35 c 1.2,0.7 1,1.95 1.18,3 0.11,0.65 -0.07,1.27 0.25,1.81 z"
         id="path116"
         inkscape:connector-curvature="0"
         style="fill:#bd9c7d" />
      <path
         class="cls-51"
         d="M 22.61,10.66 C 22.32,9.87 21.54,10.17 20.99,9.98 20.44,9.79 19.52,9.67 18.81,9.46 18.1,9.25 18,8.81 18.62,8.33 a 4.86,4.86 0 0 1 2.35,-1 c 0,1.53 0.73,2.22 2.1,2.09 0.33,0.78 1.14,0.89 1.78,1.23 a 10.3,10.3 0 0 1 2.07,1.2 c -1,-0.39 -2.06,-0.75 -3.07,-1.18 a 1.22,1.22 0 0 0 -1.24,-0.01 z"
         id="path118"
         inkscape:connector-curvature="0"
         style="fill:#9fa9ac" />
      <path
         class="cls-52"
         d="m 14,79.75 a 2.31,2.31 0 0 1 0.58,-2.18 26.54,26.54 0 0 1 1.74,-2.36 h 0.24 a 9.49,9.49 0 0 1 -0.48,3.59 c -0.46,0.73 -0.66,1.64 -1.42,2.16 C 14.3,80.66 14.58,80 14,79.75 Z"
         id="path120"
         inkscape:connector-curvature="0"
         style="fill:#977152" />
      <path
         class="cls-53"
         d="m 21.9,70.67 c -0.47,0.78 -0.19,1.62 -0.22,2.43 0,1.64 0,1.64 -1.69,1.64 a 6.06,6.06 0 0 0 -0.2,-2.16 c 0.79,-0.15 0.83,-1 1.32,-1.42 0.21,-0.16 0.18,-0.9 0.79,-0.49 z"
         id="path122"
         inkscape:connector-curvature="0"
         style="fill:#b29172" />
      <path
         class="cls-20"
         d="m 16.38,71.6 a 10.06,10.06 0 0 1 -1.66,-2.6 1.11,1.11 0 0 1 1.44,0 c 0.48,0.82 0.12,1.73 0.22,2.6 z"
         id="path124"
         inkscape:connector-curvature="0"
         style="fill:#bc9b7b" />
      <path
         class="cls-54"
         d="m 17.83,66.12 c 0,1.16 0.24,2.39 -0.73,3.35 a 2.9,2.9 0 0 1 0.73,-3.35 z"
         id="path126"
         inkscape:connector-curvature="0"
         style="fill:#af9378" />
      <path
         class="cls-55"
         d="m 21.67,82.9 c -0.52,1 -0.17,2 -0.22,3 0,0.69 -0.18,1.16 -1,1.08 a 4.56,4.56 0 0 0 0.49,-3.82 c 0.19,-0.26 0.3,-0.7 0.73,-0.26 z"
         id="path128"
         inkscape:connector-curvature="0"
         style="fill:#ac896b" />
      <path
         class="cls-56"
         d="m 14.7,81 a 6.2,6.2 0 0 1 1.42,-2.16 3.06,3.06 0 0 0 0,2.17 z"
         id="path130"
         inkscape:connector-curvature="0"
         style="fill:#b08d6e" />
      <path
         class="cls-22"
         d="m 16.16,69 h -1.44 a 8.94,8.94 0 0 1 1.41,-1.93 z"
         id="path132"
         inkscape:connector-curvature="0"
         style="fill:#b39173" />
      <path
         class="cls-57"
         d="m 32.47,15.7 c -1.07,-0.36 -1.53,-1.48 -2.45,-2 1,0.49 2,0.88 2.45,2 z"
         id="path134"
         inkscape:connector-curvature="0"
         style="fill:#99a4a7" />
      <path
         class="cls-25"
         d="m 20,87 c -0.49,0.08 -1,-0.2 -1.47,0.25 -0.31,-0.75 0.35,-1 0.71,-1.45 0.02,0.52 0.56,0.74 0.76,1.2 z"
         id="path136"
         inkscape:connector-curvature="0"
         style="fill:#ae8b6c" />
      <path
         class="cls-20"
         d="m 19.75,67.76 q 1.29,1 0,1.95 a 7.08,7.08 0 0 1 0,-1.95 z"
         id="path138"
         inkscape:connector-curvature="0"
         style="fill:#bc9b7b" />
      <path
         class="cls-58"
         d="m 19.26,75.94 a 1.09,1.09 0 0 1 0,-1.92 z"
         id="path140"
         inkscape:connector-curvature="0"
         style="fill:#b49273" />
      <path
         class="cls-59"
         d="m 29.06,13 a 1.66,1.66 0 0 1 -1,-0.61 c 0.52,-0.1 0.71,0.2 1,0.61 z"
         id="path142"
         inkscape:connector-curvature="0"
         style="fill:#97a2a5" />
      <path
         class="cls-60"
         d="M 5.78,22.88 H 6.05 A 1.2,1.2 0 0 1 5.16,23.61 1.35,1.35 0 0 1 5.78,22.88 Z"
         id="path144"
         inkscape:connector-curvature="0"
         style="fill:#b0babc" />
      <path
         class="cls-10"
         d="m 44.22,61.3 c -0.12,0.38 0.28,0.88 -0.25,1.18 0.08,-0.39 -0.14,-0.86 0.25,-1.18 z"
         id="path146"
         inkscape:connector-curvature="0"
         style="fill:#ae8561" />
      <path
         class="cls-13"
         d="m 32.21,98.74 c -1,1.43 -1.91,2.87 -2.87,4.31 a 13.46,13.46 0 0 1 -3.11,-4.55 3.49,3.49 0 0 1 2.49,-0.25 c 0.19,-1.28 -0.29,-2.62 0.38,-3.83 1,0.7 1.39,1.91 2.13,2.82 0.37,0.47 0.66,1 0.98,1.5 z"
         id="path148"
         inkscape:connector-curvature="0"
         style="fill:#b48f6f" />
      <path
         class="cls-61"
         d="m 33.43,88.17 a 26.12,26.12 0 0 1 2.89,4.33 10.13,10.13 0 0 1 -2.89,4.33 18.23,18.23 0 0 1 -3.11,-4.56 2.3,2.3 0 0 1 1.59,-0.36 c 0.88,0 1.16,-0.38 1.17,-1.21 0.01,-0.83 -0.25,-1.7 0.35,-2.53 z"
         id="path150"
         inkscape:connector-curvature="0"
         style="fill:#b59272" />
      <path
         class="cls-14"
         d="m 27.42,103.79 c 0,0.52 0.64,0.85 0.49,1.43 a 16.21,16.21 0 0 1 -2.69,4.24 0.31,0.31 0 0 1 -0.42,0.06 c -0.69,-1.56 -1.9,-2.78 -2.66,-4.29 0.14,-0.75 0.72,-0.76 1.26,-0.67 1.05,0.18 1.34,-0.32 1.29,-1.25 a 8.26,8.26 0 0 1 0,-1.65 c 0.05,-0.38 -0.09,-0.92 0.55,-1 a 16.84,16.84 0 0 0 2.18,3.13 z"
         id="path152"
         inkscape:connector-curvature="0"
         style="fill:#b28d6d" />
      <path
         class="cls-61"
         d="m 25,96.84 a 15.06,15.06 0 0 1 -2.64,-4.1 1.59,1.59 0 0 1 1.24,-0.34 c 1,0.06 1.33,-0.48 1.29,-1.41 A 6.73,6.73 0 0 1 25,89.2 c 0.05,-0.26 0.11,-0.57 0.5,-0.53 0.77,1.37 2,2.47 2.41,4.07 A 9.28,9.28 0 0 1 25,96.84 Z"
         id="path154"
         inkscape:connector-curvature="0"
         style="fill:#b59272" />
      <path
         class="cls-47"
         d="M 27.17,87.94 C 27.06,87.41 26.5,87.09 26.48,86.51 A 2.22,2.22 0 0 1 28,86.15 c 0.93,0 1.29,-0.42 1.27,-1.3 a 7.07,7.07 0 0 1 0,-1.3 c 0.05,-0.37 0,-0.84 0.56,-0.89 l 2.38,3.6 a 15.31,15.31 0 0 1 -2.67,4.25 0.34,0.34 0 0 1 -0.43,0.08 9.53,9.53 0 0 1 -1.94,-2.65 z"
         id="path156"
         inkscape:connector-curvature="0"
         style="fill:#b89575" />
      <path
         class="cls-62"
         d="m 25.26,100.67 a 6.13,6.13 0 0 0 -0.2,3.12 c 0.05,1.2 -0.55,1.37 -1.43,1.14 -0.59,-0.15 -1.07,-0.2 -1.49,0.3 -0.4,-0.89 0.65,-1.22 0.73,-1.93 l 1.69,-2.42 c 0.17,-0.24 0.32,-0.63 0.7,-0.21 z"
         id="path158"
         inkscape:connector-curvature="0"
         style="fill:#a98364" />
      <path
         class="cls-63"
         d="m 33.43,88.17 c 0,1.07 0,2.13 0,3.19 0,0.64 -0.19,0.94 -0.88,0.91 -0.69,-0.03 -1.49,0 -2.24,0 l 2.15,-3.37 c 0.38,-0.18 0.34,-0.9 0.97,-0.73 z"
         id="path160"
         inkscape:connector-curvature="0"
         style="fill:#ad8a6a" />
      <path
         class="cls-64"
         d="m 33.43,100.66 c 0,1.06 0,2.12 0,3.18 0,0.65 -0.2,0.94 -0.88,0.91 -0.68,-0.03 -1.49,0 -2.24,0 l 0.47,-0.74 a 27,27 0 0 0 1.91,-2.83 c 0.18,-0.24 0.22,-0.74 0.74,-0.52 z"
         id="path162"
         inkscape:connector-curvature="0"
         style="fill:#a98465" />
      <path
         class="cls-65"
         d="m 25.5,88.67 a 4.09,4.09 0 0 0 -0.2,2.56 c 0.07,1.25 -0.41,1.67 -1.59,1.52 a 11.63,11.63 0 0 0 -1.32,0 33.37,33.37 0 0 1 2.61,-4.32 h 0.48 z"
         id="path164"
         inkscape:connector-curvature="0"
         style="fill:#ad8969" />
      <path
         class="cls-66"
         d="m 21.42,94.91 c -0.49,0.89 -0.12,1.85 -0.23,2.77 -0.05,0.49 0.14,1.22 -0.56,1.23 -0.7,0.01 -1.71,0.58 -2.32,-0.42 a 26.19,26.19 0 0 0 2.29,-3.16 c 0.21,-0.25 0.24,-0.88 0.82,-0.42 z"
         id="path166"
         inkscape:connector-curvature="0"
         style="fill:#ab8667" />
      <path
         class="cls-67"
         d="m 29.1,94.42 c 0,1.15 0,2.3 0,3.45 0,0.6 -0.16,0.73 -0.74,0.66 a 17.12,17.12 0 0 0 -2.15,0 19.74,19.74 0 0 1 2.89,-4.11 z"
         id="path168"
         inkscape:connector-curvature="0"
         style="fill:#ab8767" />
      <path
         class="cls-68"
         d="m 29.11,90.59 c 1.25,-1.29 2,-3 3.1,-4.33 l 1.18,0.06 c -0.5,0.71 -1.19,1.12 -1.4,1.86 -0.58,0.84 -1.16,1.68 -1.75,2.51 a 4.39,4.39 0 0 1 -0.66,0.82 c -0.23,0.21 -0.59,0.41 -0.86,0.15 -0.45,-0.45 0.36,-0.31 0.35,-0.6 a 2.42,2.42 0 0 1 0.04,-0.47 z"
         id="path170"
         inkscape:connector-curvature="0"
         style="fill:#926c4d" />
      <path
         class="cls-69"
         d="m 25,96.84 2.88,-4.1 A 1.11,1.11 0 0 1 29,92.62 l -3.27,4.83 a 1.77,1.77 0 0 1 -0.34,0.33 c -0.22,0.21 -0.48,0.33 -0.74,0.13 -0.42,-0.32 0.13,-0.43 0.18,-0.65 A 1.54,1.54 0 0 1 25,96.84 Z"
         id="path172"
         inkscape:connector-curvature="0"
         style="fill:#916a4b" />
      <path
         class="cls-70"
         d="m 33.43,96.83 c 1,-1.44 1.93,-2.88 2.89,-4.33 0.4,-0.07 0.8,0.27 1.19,0 0,0.16 0,0.32 0,0.48 -0.5,0 -0.73,0.39 -1,0.77 -0.76,1.16 -1.55,2.3 -2.32,3.46 a 5.67,5.67 0 0 1 -0.43,0.57 0.53,0.53 0 0 1 -0.74,0.13 c -0.42,-0.32 0.13,-0.43 0.18,-0.66 a 1.54,1.54 0 0 1 0.23,-0.42 z"
         id="path174"
         inkscape:connector-curvature="0"
         style="fill:#916b4c" />
      <path
         class="cls-68"
         d="M 21.19,91.07 24.06,87 c 0.67,0 0.71,0.4 0.4,0.87 Q 23.21,89.74 22,91.6 a 2.38,2.38 0 0 1 -0.42,0.42 c -0.22,0.21 -0.48,0.33 -0.75,0.13 -0.27,-0.2 0.14,-0.43 0.19,-0.66 a 1.54,1.54 0 0 1 0.17,-0.42 z"
         id="path176"
         inkscape:connector-curvature="0"
         style="fill:#926c4d" />
      <path
         class="cls-69"
         d="m 17.87,96.82 c -0.06,-1.19 0.93,-1.85 1.41,-2.76 A 12.55,12.55 0 0 1 20,93 l 1.26,0.07 a 17,17 0 0 0 -2.42,3.23 1,1 0 0 1 -0.97,0.52 z"
         id="path178"
         inkscape:connector-curvature="0"
         style="fill:#916a4b" />
      <path
         class="cls-71"
         d="m 25.51,84.81 a 12.42,12.42 0 0 1 -2.88,-4.07 1.9,1.9 0 0 1 1.24,-0.34 c 1,0.06 1.31,-0.49 1.29,-1.4 a 4.62,4.62 0 0 1 0.35,-2.57 h 0.24 l 2.63,4.08 a 12.3,12.3 0 0 1 -2.87,4.3 z"
         id="path180"
         inkscape:connector-curvature="0"
         style="fill:#ba9778" />
      <path
         class="cls-72"
         d="m 43.51,64.9 a 2.37,2.37 0 0 0 -0.25,1.36 c 0,0.34 0.06,0.74 -0.45,0.79 -0.62,-0.67 -0.85,-1.64 -1.7,-2.13 -0.08,0.1 -0.16,0.1 -0.24,0 a 1.52,1.52 0 0 0 -1.73,0.88 c -0.31,0.58 -0.74,1.1 -1.09,1.67 -0.35,0.57 -0.73,1 -1.18,0.63 -0.45,-0.37 0.39,-0.61 0.4,-1 -0.1,-0.72 0.49,-1.13 0.8,-1.75 -0.72,-0.3 -1.59,0.18 -2.24,-0.4 h -2.17 a 0.5,0.5 0 0 1 -0.7,0 c -0.84,-0.13 -1.27,0.37 -1.72,1 -0.62,0.81 -0.88,2 -2.28,2.34 L 29.58,67 c -0.37,-0.75 0.48,-1.12 0.54,-1.77 -0.72,-0.2 -1.53,0.14 -2.19,-0.36 h -2.18 a 0.28,0.28 0 0 1 -0.48,0 1.53,1.53 0 0 0 -1.74,0.89 6.19,6.19 0 0 1 -1.41,1.89 c -0.23,0.19 -0.41,0.72 -0.84,0.29 -0.43,-0.43 0.18,-0.56 0.3,-0.83 0.12,-0.27 0.21,-0.22 0.32,-0.33 -0.22,-0.59 0.34,-0.93 0.48,-1.51 -0.68,-0.25 -1.51,0.11 -2.13,-0.39 a 0.52,0.52 0 0 1 -0.49,-0.23 h 22.87 c 0.31,0.01 0.65,-0.07 0.88,0.25 z"
         id="path182"
         inkscape:connector-curvature="0"
         style="fill:#967152" />
      <path
         class="cls-20"
         d="m 29.59,78.59 c -0.93,-0.57 -1.16,-1.71 -1.93,-2.41 l -0.94,-1.67 c 1.8,-0.18 2.65,-1.09 2.36,-3 a 1.53,1.53 0 0 1 0.27,-0.88 19.3,19.3 0 0 1 2.87,4.07 9.16,9.16 0 0 1 -2.63,3.89 z"
         id="path184"
         inkscape:connector-curvature="0"
         style="fill:#bc9b7b" />
      <path
         class="cls-28"
         d="m 37,78.6 a 5.34,5.34 0 0 1 -1.21,-1.7 c -0.24,-0.88 -1.25,-1.38 -1.2,-2.4 a 1.46,1.46 0 0 1 1.11,-0.34 c 1,0.07 1.18,-0.46 1.21,-1.31 0,-0.67 -0.37,-1.53 0.57,-1.95 a 30,30 0 0 1 2.4,3.84 12.52,12.52 0 0 1 -2.35,3.73 A 0.45,0.45 0 0 1 37,78.6 Z"
         id="path186"
         inkscape:connector-curvature="0"
         style="fill:#bc9b7c" />
      <path
         class="cls-73"
         d="m 25.51,64.92 h 0.24 c 0.76,1.39 2,2.5 2.43,4.09 a 10,10 0 0 1 -2.44,3.81 17.76,17.76 0 0 1 -2.87,-4.06 1.68,1.68 0 0 1 1.2,-0.4 c 1,0 1.17,-0.52 1.12,-1.37 a 3,3 0 0 1 0.32,-2.07 z"
         id="path188"
         inkscape:connector-curvature="0"
         style="fill:#be9d7e" />
      <path
         class="cls-73"
         d="m 33.67,65.14 a 28.7,28.7 0 0 1 2.4,3.86 9.24,9.24 0 0 1 -2.64,3.85 18.43,18.43 0 0 1 -2.87,-4.08 2.21,2.21 0 0 1 1.11,-0.36 c 1.37,-0.13 1.33,-0.13 1.42,-1.55 0.04,-0.61 -0.34,-1.4 0.58,-1.72 z"
         id="path190"
         inkscape:connector-curvature="0"
         style="fill:#be9d7e" />
      <path
         class="cls-74"
         d="m 33.89,76.91 c 0.52,1.32 1.58,2.32 2.18,3.59 a 9.34,9.34 0 0 1 -2.64,3.85 10.56,10.56 0 0 1 -2.65,-4.09 1.43,1.43 0 0 1 1.11,-0.34 c 1,0.07 1.21,-0.47 1.19,-1.33 a 2.61,2.61 0 0 1 0.35,-1.94 z"
         id="path192"
         inkscape:connector-curvature="0"
         style="fill:#ba9878" />
      <path
         class="cls-75"
         d="m 25.51,76.43 c 0,1 0,2.06 0,3.08 0,1.02 -0.3,1.32 -1.23,1.24 -0.55,0 -1.11,0 -1.66,0 l 2.64,-4.31 z"
         id="path194"
         inkscape:connector-curvature="0"
         style="fill:#b18e6f" />
      <path
         class="cls-76"
         d="m 33.67,65.14 a 3.84,3.84 0 0 0 -0.21,2.43 c 0,1 -0.31,1.28 -1.23,1.18 a 15.5,15.5 0 0 0 -1.67,0 42.45,42.45 0 0 0 2.44,-3.84 h 0.7 a 1.93,1.93 0 0 1 -0.03,0.23 z"
         id="path196"
         inkscape:connector-curvature="0"
         style="fill:#b59475" />
      <path
         class="cls-77"
         d="m 37.51,70.9 c -0.47,0.56 -0.21,1.23 -0.23,1.84 -0.05,2 0.2,1.74 -1.82,1.76 H 34.62 A 22.83,22.83 0 0 1 36.84,71 c 0.16,-0.24 0.4,-0.46 0.67,-0.1 z"
         id="path198"
         inkscape:connector-curvature="0"
         style="fill:#b39172" />
      <path
         class="cls-78"
         d="m 40.87,64.9 h 0.24 c 0,0.92 0,1.84 0,2.75 0,0.91 -0.27,1.16 -1.1,1.08 -0.51,0 -1,0 -1.55,0 a 32.44,32.44 0 0 1 2.41,-3.83 z"
         id="path200"
         inkscape:connector-curvature="0"
         style="fill:#b59375" />
      <path
         class="cls-79"
         d="m 33.43,76.65 v 0.95 c 0,2.67 0,2.67 -2.65,2.66 0.43,-1.25 1.51,-2.11 1.94,-3.36 0.28,0 0.34,-0.52 0.71,-0.25 z"
         id="path202"
         inkscape:connector-curvature="0"
         style="fill:#b18f70" />
      <path
         class="cls-80"
         d="m 21.43,79.06 c 1,-1.44 1.93,-2.88 2.9,-4.31 0.29,0.18 1.5,-0.53 0.7,0.71 a 34.1,34.1 0 0 0 -2.8,4 c -0.35,0.48 -0.67,0.85 -1.4,0.68 z"
         id="path204"
         inkscape:connector-curvature="0"
         style="fill:#946f50" />
      <path
         class="cls-81"
         d="m 25.51,64.92 c 0,0.87 0,1.75 0,2.63 0,0.62 0.1,1.12 -0.89,1 -0.53,0 -1.15,0.18 -1.75,0.16 a 30,30 0 0 1 2.4,-3.84 z"
         id="path206"
         inkscape:connector-curvature="0"
         style="fill:#b59374" />
      <path
         class="cls-82"
         d="m 37,78.6 c 1.26,-1.06 1.78,-2.68 2.88,-3.86 h 1.34 a 12,12 0 0 0 -2.54,3.37 l -0.24,0.23 c -0.13,0.19 -0.28,0.37 -0.4,0.57 -0.27,0.43 -0.51,1.06 -1.13,0.77 C 36.29,79.39 37.29,79 37,78.6 Z"
         id="path208"
         inkscape:connector-curvature="0"
         style="fill:#946f51" />
      <path
         class="cls-83"
         d="M 33.43,72.83 36.07,69 h 1.3 c -1.83,1.43 -2.24,3.91 -4.23,5 l -0.28,-0.22 z"
         id="path210"
         inkscape:connector-curvature="0"
         style="fill:#957051" />
      <path
         class="cls-80"
         d="m 29.59,78.59 2.63,-3.85 c 0.34,0.06 0.7,-0.12 1,0.13 -0.18,0.63 -1,0.82 -1,1.55 A 12.58,12.58 0 0 0 30.38,79 1.48,1.48 0 0 1 28.95,79.72 Z"
         id="path212"
         inkscape:connector-curvature="0"
         style="fill:#946f50" />
      <path
         class="cls-77"
         d="m 29.35,70.67 c 0,0.92 -0.05,1.84 0,2.75 0.05,0.91 -0.24,1.18 -1.08,1.09 -0.52,-0.05 -1,0 -1.56,0 z"
         id="path214"
         inkscape:connector-curvature="0"
         style="fill:#b39172" />
      <path
         class="cls-83"
         d="M 25.74,72.8 A 30.82,30.82 0 0 1 28.18,69 l 1.24,0.06 a 22,22 0 0 0 -2.17,2.81 c -0.61,0.74 -0.79,2.14 -2.45,2 0.42,-0.5 0.82,-0.66 0.94,-1.07 z"
         id="path216"
         inkscape:connector-curvature="0"
         style="fill:#957051" />
      <path
         class="cls-84"
         d="m 35.83,64.9 h 2.71 a 9.6,9.6 0 0 1 -1.27,2.15 7.87,7.87 0 0 1 -1.44,-2.15 z"
         id="path218"
         inkscape:connector-curvature="0"
         style="fill:#be9e7f" />
      <path
         class="cls-85"
         d="m 27.93,64.91 h 2.69 c -0.05,0.9 -0.91,1.34 -1,2.13 -0.88,-0.49 -1.14,-1.42 -1.69,-2.13 z"
         id="path220"
         inkscape:connector-curvature="0"
         style="fill:#bf9e7f" />
      <path
         class="cls-73"
         d="m 20.25,64.91 h 2.67 c -0.15,0.78 -0.79,1.23 -1,1.9 -0.98,-0.28 -1.22,-1.18 -1.67,-1.9 z"
         id="path222"
         inkscape:connector-curvature="0"
         style="fill:#be9d7e" />
      <path
         class="cls-86"
         d="m 29.35,106.9 a 45,45 0 0 1 2.88,4.32 12.6,12.6 0 0 1 -2.88,4.32 c -0.44,0 -0.61,-0.3 -0.8,-0.61 a 30.37,30.37 0 0 1 -2.33,-3.71 1.7,1.7 0 0 1 1.43,-0.46 c 1,0.13 1.13,-0.4 1.12,-1.19 a 7.23,7.23 0 0 1 0.1,-2.13 c 0.07,-0.23 0.05,-0.61 0.48,-0.54 z"
         id="path224"
         inkscape:connector-curvature="0"
         style="fill:#b08a6a" />
      <path
         class="cls-87"
         d="m 29.11,119.39 v 3.83 c -0.25,0.54 -0.73,0.47 -1.2,0.49 a 3.64,3.64 0 0 0 -1.93,0.23 19,19 0 0 1 3.13,-4.55 z"
         id="path226"
         inkscape:connector-curvature="0"
         style="fill:#a47d5e" />
      <path
         class="cls-38"
         d="m 25,113.14 c 0,1.08 0,2.15 0,3.22 0,0.49 0.16,1.18 -0.67,1.08 -0.64,-0.08 -1.62,0.53 -1.78,-0.74 a 1.85,1.85 0 0 0 -0.18,-0.44 c 1,-0.71 1.35,-1.87 2.1,-2.76 0.16,-0.17 0.13,-0.61 0.53,-0.36 z"
         id="path228"
         inkscape:connector-curvature="0"
         style="fill:#a68061" />
      <path
         class="cls-88"
         d="m 29.35,106.9 c -0.51,1.09 -0.19,2.25 -0.22,3.37 0,0.8 -0.31,1.17 -1.06,0.87 -0.75,-0.3 -1.23,0.23 -1.85,0.08 a 21.26,21.26 0 0 1 2.85,-4.46 2.28,2.28 0 0 1 0.28,0.14 z"
         id="path230"
         inkscape:connector-curvature="0"
         style="fill:#a78262" />
      <path
         class="cls-89"
         d="m 24.07,122.27 c -0.24,-0.62 -0.85,-1.19 -0.25,-1.92 0,0.35 0.27,0.55 0.42,0.83 0.42,0.8 0.8,0.72 1.26,0 0.78,-1.18 1.6,-2.33 2.41,-3.5 0.36,-0.27 0.72,-0.14 1.1,-0.06 l -4,5.6 a 2.76,2.76 0 0 1 -0.94,-0.95 z"
         id="path232"
         inkscape:connector-curvature="0"
         style="fill:#8d6546" />
      <path
         class="cls-90"
         d="m 29.35,115.54 a 41.58,41.58 0 0 1 2.88,-4.32 1.61,1.61 0 0 1 1,0.25 1.77,1.77 0 0 0 0,0.23 c -1.33,1 -1.92,2.6 -2.9,3.88 -0.27,0.34 -0.43,0.77 -0.84,1 -0.26,0.14 -0.54,0.28 -0.77,0 -0.23,-0.28 0.17,-0.43 0.26,-0.65 0.09,-0.22 0.23,-0.26 0.37,-0.39 z"
         id="path234"
         inkscape:connector-curvature="0"
         style="fill:#8e6747" />
      <path
         class="cls-91"
         d="m 24.8,109.52 c 1.27,-1.26 1.93,-3 3.11,-4.3 0.36,-0.27 0.72,-0.13 1.15,0 a 49,49 0 0 0 -3,4.17 3.26,3.26 0 0 1 -0.48,0.67 c -0.27,0.21 -0.4,0.81 -0.92,0.49 -0.52,-0.32 0.26,-0.69 0.14,-1.03 z"
         id="path236"
         inkscape:connector-curvature="0"
         style="fill:#8f6849" />
      <path
         class="cls-90"
         d="m 22.15,115.06 c -0.08,-0.16 -0.15,-0.33 -0.23,-0.49 0.19,-1.37 1.32,-2.21 1.91,-3.35 a 2.07,2.07 0 0 1 1.15,0.19 c -1.22,1.03 -1.68,2.59 -2.83,3.65 z"
         id="path238"
         inkscape:connector-curvature="0"
         style="fill:#8e6747" />
      <path
         class="cls-26"
         d="m 29.83,82.66 c -0.48,0.72 -0.19,1.53 -0.23,2.3 -0.06,1.43 -0.13,1.54 -1.58,1.54 h -1.54 c 0.81,-1.23 1.61,-2.47 2.44,-3.68 0.22,-0.32 0.46,-0.91 0.91,-0.16 z"
         id="path240"
         inkscape:connector-curvature="0"
         style="fill:#b08c6d" />
      <path
         class="cls-92"
         d="m 25.51,84.81 a 44.18,44.18 0 0 1 2.87,-4.31 c 0.29,0.06 0.69,-0.16 0.84,0.22 0.15,0.38 -0.25,0.45 -0.4,0.67 l -2.67,3.89 c -0.35,0.5 -0.72,1 -1.47,0.52 z"
         id="path242"
         inkscape:connector-curvature="0"
         style="fill:#936d4e" />
      <path
         class="cls-26"
         d="m 37.27,82.41 v 1 c 0,0.87 0.27,2 -0.17,2.52 -0.44,0.52 -1.62,0.11 -2.48,0.13 0.76,-1.19 1.5,-2.38 2.26,-3.56 0.12,-0.17 0.24,-0.26 0.39,-0.09 z"
         id="path244"
         inkscape:connector-curvature="0"
         style="fill:#b08c6d" />
      <path
         class="cls-93"
         d="m 33.43,84.35 2.64,-3.85 c 0.66,0 0.91,0.21 0.47,0.85 -0.81,1.16 -1.6,2.33 -2.41,3.5 -0.26,0.38 -0.6,1 -1.09,0.54 -0.49,-0.46 0.38,-0.63 0.39,-1.04 z"
         id="path246"
         inkscape:connector-curvature="0"
         style="fill:#936d4f" />
      <path
         class="cls-73"
         d="M 11.87,64.93 H 15 a 5.54,5.54 0 0 1 -1.21,2.13 c -0.25,0.37 -0.47,0.06 -0.63,-0.18 z"
         id="path248"
         inkscape:connector-curvature="0"
         style="fill:#be9d7e" />
      <path
         class="cls-1"
         d="m 24.37,45 a 8.9,8.9 0 0 1 -7.74,-4.35 19.45,19.45 0 0 1 -2.59,-7 1.54,1.54 0 0 1 0.54,-1.65 c 0.83,-0.66 1,-1.79 1.34,-2.73 a 5,5 0 0 1 2.46,-2.58 c 5.62,-3.06 10.54,0.5 12.18,5.62 a 23.4,23.4 0 0 1 0.78,4.07 c 0.22,1.63 -0.77,2.85 -1.17,4.27 -0.05,0.14 -0.24,0.26 -0.25,0.4 a 2.88,2.88 0 0 1 -1.3,2.52 9.76,9.76 0 0 1 -4.25,1.43 z"
         id="path250"
         inkscape:connector-curvature="0"
         style="fill:#859397" />
      <path
         class="cls-94"
         d="M 17.55,20.83 A 10,10 0 0 1 22,19 c -1.41,1.35 -3,1.52 -4.45,1.83 z"
         id="path252"
         inkscape:connector-curvature="0"
         style="fill:#879598" />
      <path
         class="cls-6"
         d="m 17.6,30.09 a 6.94,6.94 0 0 0 3.93,2.81 c 0.52,0.14 0.82,0.23 0.94,-0.61 0.32,-2.41 2,-3.23 4.2,-2.1 0.72,0.37 1.19,-0.26 1.84,-0.23 0.18,0.37 -0.65,1 0.32,1.21 0.09,0 -0.16,0.49 -0.38,0.66 a 2.44,2.44 0 0 0 -0.81,2 7.75,7.75 0 0 1 -4.57,6.9 6.49,6.49 0 0 1 -6.64,-0.88 6.52,6.52 0 0 0 3.44,-1 C 17.72,38 17.36,35.85 17.23,34.15 17.14,33 16.42,31.39 17.6,30.09 Z"
         id="path254"
         inkscape:connector-curvature="0"
         style="fill:#c09d7c" />
    </g>
  </g>
</svg>
